<?xml version="1.0" encoding="UTF-8" standalone="no"?>
<!-- Created with Inkscape (http://www.inkscape.org/) -->

<svg
   xmlns:dc="http://purl.org/dc/elements/1.1/"
   xmlns:cc="http://creativecommons.org/ns#"
   xmlns:rdf="http://www.w3.org/1999/02/22-rdf-syntax-ns#"
   xmlns:svg="http://www.w3.org/2000/svg"
   xmlns="http://www.w3.org/2000/svg"
   xmlns:sodipodi="http://sodipodi.sourceforge.net/DTD/sodipodi-0.dtd"
   xmlns:inkscape="http://www.inkscape.org/namespaces/inkscape"
   width="283.46457"
   height="283.46457"
   id="svg2998"
   version="1.1"
   inkscape:version="0.48.5 r10040"
   sodipodi:docname="New document 3">
  <defs
     id="defs3000" />
  <sodipodi:namedview
     id="base"
     pagecolor="#ffffff"
     bordercolor="#666666"
     borderopacity="1.0"
     inkscape:pageopacity="0.0"
     inkscape:pageshadow="2"
     inkscape:zoom="1.979899"
     inkscape:cx="249.34231"
     inkscape:cy="183.44246"
     inkscape:document-units="mm"
     inkscape:current-layer="layer1"
     showgrid="false"
     units="mm"
     inkscape:window-width="1366"
     inkscape:window-height="705"
     inkscape:window-x="-8"
     inkscape:window-y="-8"
     inkscape:window-maximized="1" />
  <metadata
     id="metadata3003">
    <rdf:RDF>
      <cc:Work
         rdf:about="">
        <dc:format>image/svg+xml</dc:format>
        <dc:type
           rdf:resource="http://purl.org/dc/dcmitype/StillImage" />
        <dc:title></dc:title>
      </cc:Work>
    </rdf:RDF>
  </metadata>
  <g
     inkscape:label="Layer 1"
     inkscape:groupmode="layer"
     id="layer1"
     transform="translate(0,-768.89763)">
    <path
       sodipodi:type="inkscape:offset"
       inkscape:radius="0"
       inkscape:original="M 212.28125 790.875 C 210.13115 790.78254 208.04353 791.12777 206.0625 791.96875 C 202.77829 793.36295 197.68262 797.20913 195.21875 800.1875 C 193.4962 802.26975 189.3612 810.78186 188.375 814.25 C 187.08193 818.79732 186.64182 820.65944 186.0625 824.125 C 185.75124 825.98698 185.17435 827.66509 184.78125 827.875 C 176.54986 832.27037 162.5155 845.01553 158.03125 852.15625 C 155.16071 856.72731 154.23774 861.56394 155.46875 865.46875 C 156.75604 869.55209 162.6566 871.81002 171.625 871.59375 C 177.37801 871.45501 186.29122 870.17288 189.875 868.96875 C 191.34488 868.47488 191.69343 868.64603 192.625 870.46875 C 194.12559 873.40484 199.18103 879.0088 202.15625 881 C 203.53665 881.92385 206.01888 883.09553 207.65625 883.625 C 213.63807 885.55933 220.75896 883.73832 225.75 879 C 231.61375 873.43315 235.73864 865.09267 237.9375 854.3125 C 238.64974 850.82065 239.48955 847.81686 239.8125 847.65625 C 241.29652 846.91822 249.89142 840.93596 252.96875 838.5 C 260.76866 832.32575 269.23289 822.2551 270.4375 817.6875 C 271.60663 813.25441 270.85866 810.43725 267.875 808 C 262.35751 803.49296 252.93342 802.91132 235.71875 806.03125 L 232.90625 806.5625 L 230.375 802.71875 C 225.56332 795.43835 218.73156 791.15239 212.28125 790.875 z M 212.34375 792.34375 C 216.61497 792.34375 219.66124 793.60737 224.15625 797.28125 C 227.77076 800.23549 233.81643 810.15264 235.75 816.28125 C 236.95647 820.10525 238.8125 829.51747 238.8125 831.84375 C 238.8125 832.40648 237.4191 833.91146 235.71875 835.1875 C 234.01839 836.46354 232.19131 837.83026 231.6875 838.21875 C 230.85794 838.85844 222.73152 843.47669 219.34375 845.21875 C 213.33772 848.30718 200.0928 852.95428 193.90625 854.15625 C 192.52077 854.42542 190.62417 854.82391 189.6875 855.03125 C 188.11145 855.38014 187.92593 855.21365 187.34375 852.84375 C 184.32914 840.5721 185.64281 823.73938 190.53125 811.59375 C 193.37591 804.526 196.15601 800.48197 200.5625 797 C 205.26808 793.28169 207.61713 792.34375 212.34375 792.34375 z M 252.125 805.59375 C 260.67332 805.57327 267.60372 807.80601 269.65625 811.65625 C 270.93549 814.05594 270.27404 817.46995 267.84375 820.9375 C 265.56932 824.18269 256.71276 833.84537 254.59375 835.40625 C 253.83804 835.96291 252.10423 837.31962 250.71875 838.40625 C 245.93259 842.16004 241.69668 845.21875 241.3125 845.21875 C 241.10045 845.21875 239.68744 846.05595 238.15625 847.09375 C 234.00357 849.90831 219.37011 857.46227 214.46875 859.3125 C 205.68029 862.63007 204.14239 863.17407 200.5625 864.3125 C 191.59919 867.16289 186.47579 868.52411 182 869.28125 C 168.46167 871.57146 160.49386 870.48799 157.09375 865.84375 C 153.04776 860.31732 158.46106 850.58479 172.03125 839.03125 C 178.71393 833.34167 183.72723 829.65625 184.78125 829.65625 C 185.02371 829.65625 185.22175 830.28288 185.21875 831.03125 C 185.21506 832.00716 183.56018 833.69638 179.4375 837 C 169.33562 845.09491 164.15625 852.17886 164.15625 857.84375 C 164.15625 860.87945 165.85426 863.37753 168.71875 864.5 C 173.38334 866.32787 188.91003 865.14431 198.03125 862.25 C 217.61093 856.03705 235.29638 846.92653 247.5 836.75 C 253.9152 831.4004 256.9528 828.13285 258.40625 825.0625 C 260.64179 820.33999 261.06422 818.38447 260.3125 816 C 259.53759 813.54194 258.11428 812.25801 254.875 811.09375 C 252.17567 810.12355 241.66868 809.84959 237.46875 810.65625 C 235.36127 811.06102 234.74942 810.9278 234.25 809.90625 C 233.42885 808.22657 233.65543 807.94821 236.3125 807.53125 C 237.55059 807.33696 240.63721 806.84164 243.15625 806.40625 C 246.24235 805.87284 249.27556 805.60058 252.125 805.59375 z M 245.65625 811.5 C 253.06485 811.46454 256.7159 812.48742 258.6875 815.15625 C 260.39004 817.46087 260.11457 819.45213 257.46875 824.375 C 255.36314 828.29273 247.5161 835.76337 240.40625 840.59375 C 225.27022 850.87704 207.03324 858.79281 189.78125 862.59375 C 176.73712 865.46761 166.90066 864.41171 165.5 859.96875 C 163.83424 854.68488 167.45455 849.03808 178.75 839.3125 C 181.41479 837.01807 183.87262 835.13 184.1875 835.125 C 185.48038 835.10583 184.62803 837.22948 182.8125 838.5625 C 176.86524 842.92918 171.15333 850.32879 170.71875 854.25 C 170.10724 859.76771 173.99497 861.98584 183.09375 861.3125 C 198.27055 860.18938 223.40206 850.13538 239.25 838.84375 C 251.56688 830.06799 256.85503 821.4724 252.75 816.90625 C 251.19024 815.1713 245.32613 813.93158 240.21875 814.25 C 237.16986 814.44008 235.85076 814.21872 235.71875 813.5625 C 235.43084 812.13125 238.31877 811.5351 245.65625 811.5 z M 243.53125 816.0625 C 248.64398 816.0625 249.85257 816.30622 251.40625 817.625 C 252.41386 818.48028 253.2969 819.75 253.375 820.46875 C 253.54772 822.05852 250.81019 827.38512 249.03125 828.90625 C 248.32081 829.51374 247.15819 830.64859 246.46875 831.4375 C 242.32659 836.17729 225.7975 846.23889 213.625 851.4375 C 207.94966 853.8613 197.90528 857.26891 194.15625 858.03125 C 192.89673 858.28736 191.13167 858.68159 190.25 858.90625 C 189.36834 859.13091 185.74541 859.45323 182.21875 859.625 C 171.34473 860.15464 168.7779 856.83192 174.15625 849.1875 C 176.81761 845.40484 184.08389 838.67613 184.75 839.375 C 185.6266 840.29472 185.22613 841.10757 182.25 844.375 C 178.966 847.98044 178.1099 849.86881 178.53125 852.71875 C 178.94746 855.53392 180.72397 856.29295 186.59375 856.28125 C 203.61524 856.24734 237.13949 840.10687 244.625 828.34375 C 245.83238 826.44641 246.14438 825.36274 246.03125 823.6875 C 245.86085 821.16427 244.31545 820.00136 240.21875 819.3125 C 237.76317 818.8996 236.48784 817.78552 237.15625 816.65625 C 237.3503 816.32839 240.21543 816.0625 243.53125 816.0625 z M 238.28125 820.59375 C 238.61058 820.48117 239.26508 820.56915 240.4375 820.78125 C 245.39918 821.67886 246.4205 823.64756 243.9375 827.40625 C 243.24476 828.45489 242.00818 829.91941 241.1875 830.6875 C 239.53196 832.23697 239.66389 832.47669 238.84375 826.46875 C 238.57398 824.49252 238.2225 822.30157 238.0625 821.59375 C 237.9339 821.02481 237.95192 820.70633 238.28125 820.59375 z M 184.375 844.40625 C 184.65329 844.33509 184.87227 844.40816 185 844.625 C 185.24388 845.03901 186.59375 853.46399 186.59375 854.59375 C 186.59375 855.42131 184.45211 855.40943 182 854.59375 C 178.71154 853.49987 178.48004 852.11481 180.96875 848 C 182.15939 846.03139 183.54013 844.61974 184.375 844.40625 z M 237.84375 849.5625 C 238.2645 850.27678 236.42643 857.90393 234.8125 862.1875 C 231.21155 871.7449 226.64396 877.80064 220.59375 881 C 213.74529 884.62148 206.15759 883.29031 199.625 877.3125 C 197.3272 875.20984 193.35326 869.9998 193.125 868.8125 C 193.01791 868.25548 193.86197 867.7084 195.375 867.375 C 196.71003 867.08083 199.14387 866.37635 200.78125 865.78125 C 202.41862 865.18616 204.27649 864.52983 204.90625 864.34375 C 211.76095 862.31837 221.34374 858.08434 230.53125 853.03125 C 234.42248 850.89109 237.71284 849.34027 237.84375 849.5625 z "
       style="fill:#000000"
       id="path3019"
       d="m 212.28125,790.875 c -2.1501,-0.0925 -4.23772,0.25277 -6.21875,1.09375 -3.28421,1.3942 -8.37988,5.24038 -10.84375,8.21875 -1.72255,2.08225 -5.85755,10.59436 -6.84375,14.0625 -1.29307,4.54732 -1.73318,6.40944 -2.3125,9.875 -0.31126,1.86198 -0.88815,3.54009 -1.28125,3.75 -8.23139,4.39537 -22.26575,17.14053 -26.75,24.28125 -2.87054,4.57106 -3.79351,9.40769 -2.5625,13.3125 1.28729,4.08334 7.18785,6.34127 16.15625,6.125 5.75301,-0.13874 14.66622,-1.42087 18.25,-2.625 1.46988,-0.49387 1.81843,-0.32272 2.75,1.5 1.50059,2.93609 6.55603,8.54005 9.53125,10.53125 1.3804,0.92385 3.86263,2.09553 5.5,2.625 5.98182,1.93433 13.10271,0.11332 18.09375,-4.625 5.86375,-5.56685 9.98864,-13.90733 12.1875,-24.6875 0.71224,-3.49185 1.55205,-6.49564 1.875,-6.65625 1.48402,-0.73803 10.07892,-6.72029 13.15625,-9.15625 7.79991,-6.17425 16.26414,-16.2449 17.46875,-20.8125 1.16913,-4.43309 0.42116,-7.25025 -2.5625,-9.6875 -5.51749,-4.50704 -14.94158,-5.08868 -32.15625,-1.96875 l -2.8125,0.53125 -2.53125,-3.84375 c -4.81168,-7.2804 -11.64344,-11.56636 -18.09375,-11.84375 z m 0.0625,1.46875 c 4.27122,0 7.31749,1.26362 11.8125,4.9375 3.61451,2.95424 9.66018,12.87139 11.59375,19 1.20647,3.824 3.0625,13.23622 3.0625,15.5625 0,0.56273 -1.3934,2.06771 -3.09375,3.34375 -1.70036,1.27604 -3.52744,2.64276 -4.03125,3.03125 -0.82956,0.63969 -8.95598,5.25794 -12.34375,7 -6.00603,3.08843 -19.25095,7.73553 -25.4375,8.9375 -1.38548,0.26917 -3.28208,0.66766 -4.21875,0.875 -1.57605,0.34889 -1.76157,0.1824 -2.34375,-2.1875 -3.01461,-12.27165 -1.70094,-29.10437 3.1875,-41.25 2.84466,-7.06775 5.62476,-11.11178 10.03125,-14.59375 4.70558,-3.71831 7.05463,-4.65625 11.78125,-4.65625 z m 39.78125,13.25 c 8.54832,-0.0205 15.47872,2.21226 17.53125,6.0625 1.27924,2.39969 0.61779,5.8137 -1.8125,9.28125 -2.27443,3.24519 -11.13099,12.90787 -13.25,14.46875 -0.75571,0.55666 -2.48952,1.91337 -3.875,3 -4.78616,3.75379 -9.02207,6.8125 -9.40625,6.8125 -0.21205,0 -1.62506,0.8372 -3.15625,1.875 -4.15268,2.81456 -18.78614,10.36852 -23.6875,12.21875 -8.78846,3.31757 -10.32636,3.86157 -13.90625,5 -8.96331,2.85039 -14.08671,4.21161 -18.5625,4.96875 -13.53833,2.29021 -21.50614,1.20674 -24.90625,-3.4375 -4.04599,-5.52643 1.36731,-15.25896 14.9375,-26.8125 6.68268,-5.68958 11.69598,-9.375 12.75,-9.375 0.24246,0 0.4405,0.62663 0.4375,1.375 -0.004,0.97591 -1.65857,2.66513 -5.78125,5.96875 -10.10188,8.09491 -15.28125,15.17886 -15.28125,20.84375 0,3.0357 1.69801,5.53378 4.5625,6.65625 4.66459,1.82787 20.19128,0.64431 29.3125,-2.25 19.57968,-6.21295 37.26513,-15.32347 49.46875,-25.5 6.4152,-5.3496 9.4528,-8.61715 10.90625,-11.6875 2.23554,-4.72251 2.65797,-6.67803 1.90625,-9.0625 -0.77491,-2.45806 -2.19822,-3.74199 -5.4375,-4.90625 -2.69933,-0.9702 -13.20632,-1.24416 -17.40625,-0.4375 -2.10748,0.40477 -2.71933,0.27155 -3.21875,-0.75 -0.82115,-1.67968 -0.59457,-1.95804 2.0625,-2.375 1.23809,-0.19429 4.32471,-0.68961 6.84375,-1.125 3.0861,-0.53341 6.11931,-0.80567 8.96875,-0.8125 z M 245.65625,811.5 c 7.4086,-0.0355 11.05965,0.98742 13.03125,3.65625 1.70254,2.30462 1.42707,4.29588 -1.21875,9.21875 -2.10561,3.91773 -9.95265,11.38837 -17.0625,16.21875 -15.13603,10.28329 -33.37301,18.19906 -50.625,22 -13.04413,2.87386 -22.88059,1.81796 -24.28125,-2.625 -1.66576,-5.28387 1.95455,-10.93067 13.25,-20.65625 2.66479,-2.29443 5.12262,-4.1825 5.4375,-4.1875 1.29288,-0.0192 0.44053,2.10448 -1.375,3.4375 -5.94726,4.36668 -11.65917,11.76629 -12.09375,15.6875 -0.61151,5.51771 3.27622,7.73584 12.375,7.0625 15.1768,-1.12312 40.30831,-11.17712 56.15625,-22.46875 12.31688,-8.77576 17.60503,-17.37135 13.5,-21.9375 -1.55976,-1.73495 -7.42387,-2.97467 -12.53125,-2.65625 -3.04889,0.19008 -4.36799,-0.0313 -4.5,-0.6875 -0.28791,-1.43125 2.60002,-2.0274 9.9375,-2.0625 z m -2.125,4.5625 c 5.11273,0 6.32132,0.24372 7.875,1.5625 1.00761,0.85528 1.89065,2.125 1.96875,2.84375 0.17272,1.58977 -2.56481,6.91637 -4.34375,8.4375 -0.71044,0.60749 -1.87306,1.74234 -2.5625,2.53125 -4.14216,4.73979 -20.67125,14.80139 -32.84375,20 -5.67534,2.4238 -15.71972,5.83141 -19.46875,6.59375 -1.25952,0.25611 -3.02458,0.65034 -3.90625,0.875 -0.88166,0.22466 -4.50459,0.54698 -8.03125,0.71875 -10.87402,0.52964 -13.44085,-2.79308 -8.0625,-10.4375 2.66136,-3.78266 9.92764,-10.51137 10.59375,-9.8125 0.8766,0.91972 0.47613,1.73257 -2.5,5 -3.284,3.60544 -4.1401,5.49381 -3.71875,8.34375 0.41621,2.81517 2.19272,3.5742 8.0625,3.5625 17.02149,-0.0339 50.54574,-16.17438 58.03125,-27.9375 1.20738,-1.89734 1.51938,-2.98101 1.40625,-4.65625 -0.1704,-2.52323 -1.7158,-3.68614 -5.8125,-4.375 -2.45558,-0.4129 -3.73091,-1.52698 -3.0625,-2.65625 0.19405,-0.32786 3.05918,-0.59375 6.375,-0.59375 z m -5.25,4.53125 c 0.32933,-0.11258 0.98383,-0.0246 2.15625,0.1875 4.96168,0.89761 5.983,2.86631 3.5,6.625 -0.69274,1.04864 -1.92932,2.51316 -2.75,3.28125 -1.65554,1.54947 -1.52361,1.78919 -2.34375,-4.21875 -0.26977,-1.97623 -0.62125,-4.16718 -0.78125,-4.875 -0.1286,-0.56894 -0.11058,-0.88742 0.21875,-1 z m -53.90625,23.8125 c 0.27829,-0.0712 0.49727,0.002 0.625,0.21875 0.24388,0.41401 1.59375,8.83899 1.59375,9.96875 0,0.82756 -2.14164,0.81568 -4.59375,0 -3.28846,-1.09388 -3.51996,-2.47894 -1.03125,-6.59375 1.19064,-1.96861 2.57138,-3.38026 3.40625,-3.59375 z m 53.46875,5.15625 c 0.42075,0.71428 -1.41732,8.34143 -3.03125,12.625 -3.60095,9.5574 -8.16854,15.61314 -14.21875,18.8125 -6.84846,3.62148 -14.43616,2.29031 -20.96875,-3.6875 -2.2978,-2.10266 -6.27174,-7.3127 -6.5,-8.5 -0.10709,-0.55702 0.73697,-1.1041 2.25,-1.4375 1.33503,-0.29417 3.76887,-0.99865 5.40625,-1.59375 1.63737,-0.59509 3.49524,-1.25142 4.125,-1.4375 6.8547,-2.02538 16.43749,-6.25941 25.625,-11.3125 3.89123,-2.14016 7.18159,-3.69098 7.3125,-3.46875 z" />
  </g>
</svg>
