<?xml version="1.0" encoding="UTF-8" standalone="no"?>
<!-- Created with Inkscape (http://www.inkscape.org/) -->

<svg
   xmlns:dc="http://purl.org/dc/elements/1.1/"
   xmlns:cc="http://creativecommons.org/ns#"
   xmlns:rdf="http://www.w3.org/1999/02/22-rdf-syntax-ns#"
   xmlns:svg="http://www.w3.org/2000/svg"
   xmlns="http://www.w3.org/2000/svg"
   xmlns:sodipodi="http://sodipodi.sourceforge.net/DTD/sodipodi-0.dtd"
   xmlns:inkscape="http://www.inkscape.org/namespaces/inkscape"
   width="141.73228"
   height="141.73228"
   id="svg2"
   version="1.1"
   inkscape:version="0.48.5 r10040"
   sodipodi:docname="New document 1">
  <defs
     id="defs4" />
  <sodipodi:namedview
     id="base"
     pagecolor="#ffffff"
     bordercolor="#666666"
     borderopacity="1.0"
     inkscape:pageopacity="0.0"
     inkscape:pageshadow="2"
     inkscape:zoom="0.98994949"
     inkscape:cx="319.61576"
     inkscape:cy="240.75273"
     inkscape:document-units="mm"
     inkscape:current-layer="layer1"
     showgrid="false"
     units="mm"
     inkscape:window-width="1366"
     inkscape:window-height="705"
     inkscape:window-x="-8"
     inkscape:window-y="-8"
     inkscape:window-maximized="1" />
  <metadata
     id="metadata7">
    <rdf:RDF>
      <cc:Work
         rdf:about="">
        <dc:format>image/svg+xml</dc:format>
        <dc:type
           rdf:resource="http://purl.org/dc/dcmitype/StillImage" />
        <dc:title></dc:title>
      </cc:Work>
    </rdf:RDF>
  </metadata>
  <g
     inkscape:label="Layer 1"
     inkscape:groupmode="layer"
     id="layer1"
     transform="translate(0,-910.62991)">
    <path
       style="fill:#000000"
       d="m 66.223347,1042.0815 c -1.797772,-0.6686 -4.508728,-2.17 -6.024344,-3.3365 -3.266665,-2.5143 -8.836145,-9.5654 -10.483739,-13.2726 -1.02282,-2.3014 -1.403374,-2.5437 -3.01724,-1.9201 -3.934841,1.5205 -13.70842,3.1371 -20.024992,3.3122 -9.846921,0.2731 -16.347053,-2.5456 -17.7604441,-7.7015 -1.3515962,-4.9304 -0.3184718,-11.0726 2.8332601,-16.8443 4.923516,-9.01639 20.326542,-25.08691 29.364263,-30.63679 0.431611,-0.26505 1.064359,-2.4055 1.406109,-4.75655 0.636069,-4.37586 1.111488,-6.71561 2.531227,-12.45735 1.082802,-4.37911 5.633344,-15.10222 7.524631,-17.73139 2.705228,-3.76069 8.285293,-8.64222 11.891212,-10.40262 8.700364,-4.24749 19.65688,1.32629 26.700905,13.58323 l 2.777522,4.83302 3.112791,-0.64878 c 18.900992,-3.93944 29.233922,-3.21433 35.291902,2.47655 3.27594,3.07742 4.09194,6.63052 2.80827,12.22804 -1.3226,5.76735 -10.59781,18.49198 -19.16178,26.288 -3.37879,3.07581 -12.82943,10.63847 -14.45882,11.57034 -0.35459,0.20281 -1.28454,3.9761 -2.066544,8.3851 -2.414249,13.6118 -6.940191,24.1649 -13.378339,31.1939 -5.479953,5.9828 -13.298061,8.2805 -19.86585,5.8381 z m 14.222101,-3.3324 c 6.642878,-4.0397 11.656164,-11.6602 15.609861,-23.7281 1.772025,-5.4087 3.776454,-15.06415 3.314489,-15.96605 -0.143731,-0.28059 -3.756922,1.70075 -8.029321,4.40305 -10.087504,6.3804 -20.608196,11.7189 -28.134371,14.2763 -0.691451,0.235 -2.728088,1.0421 -4.525861,1.7934 -1.797772,0.7515 -4.46798,1.6701 -5.933791,2.0416 -1.661242,0.4209 -2.594062,1.1004 -2.476486,1.8037 0.250618,1.4992 4.630208,8.0588 7.153093,10.7139 7.17252,7.5479 15.503066,9.2349 23.022387,4.6622 z m -42.383014,-14.769 c 4.914227,-0.956 10.525031,-2.688 20.366375,-6.2872 3.93057,-1.4374 5.623196,-2.1387 15.272563,-6.3276 5.38149,-2.3364 21.443047,-11.85291 26.002515,-15.40677 1.681183,-1.31039 3.247183,-2.38253 3.480013,-2.38253 0.42181,0 5.05454,-3.86803 10.30955,-8.60783 1.52119,-1.37204 3.44469,-3.06971 4.27442,-3.77259 2.32659,-1.97088 12.03311,-14.18185 14.53034,-18.27941 2.66835,-4.37838 3.40091,-8.67264 1.99636,-11.70264 -3.0048,-6.48211 -15.5449,-9.35089 -29.09853,-6.65684 -2.7658,0.54975 -6.140946,1.20026 -7.500318,1.44558 -2.91736,0.52648 -3.173397,0.86273 -2.271806,2.98363 0.548333,1.28986 1.236168,1.47702 3.55009,0.96592 4.611354,-1.01853 16.120184,-0.7048 19.083944,0.52023 3.55659,1.47008 5.11976,3.09226 5.97058,6.19597 0.82535,3.01078 0.37248,5.50527 -2.08205,11.46822 -1.59582,3.87683 -4.92953,7.97924 -11.97315,14.734 -13.399051,12.84955 -32.812651,24.36216 -54.310326,32.20706 -10.014719,3.6547 -27.050325,5.1702 -32.171851,2.8621 -3.145093,-1.4172 -5.040784,-4.582 -5.040784,-8.415 0,-7.1529 5.71831,-16.11026 16.809756,-26.33144 4.526525,-4.17136 6.312714,-6.30174 6.316769,-7.53399 0.0031,-0.94495 -0.21215,-1.71809 -0.478355,-1.71809 -1.157277,0 -6.650473,4.6457 -13.987773,11.82974 -14.899509,14.58828 -20.8493353,26.85888 -16.407017,33.83688 3.733185,5.8641 12.494163,7.2644 27.358685,4.3726 z m 8.548849,-8.4586 c 18.94196,-4.7993 38.948795,-14.8047 55.567517,-27.78905 7.80631,-6.09914 16.43844,-15.52278 18.75031,-20.46956 2.90501,-6.21593 3.18961,-8.72373 1.3203,-11.63369 -2.16473,-3.36984 -6.15958,-4.65959 -14.29392,-4.61481 -8.056236,0.0443 -11.232753,0.80419 -10.916631,2.61138 0.144938,0.82858 1.587757,1.07173 4.935301,0.83172 5.60769,-0.40207 12.06272,1.17514 13.77526,3.36582 4.50717,5.76551 -1.30438,16.62405 -14.82781,27.70491 -17.400366,14.25756 -44.98813,26.95308 -61.651619,28.37118 -9.990083,0.8503 -14.255084,-1.9493 -13.583663,-8.9164 0.477152,-4.9512 6.726291,-14.28415 13.256135,-19.79782 1.993374,-1.68316 2.928143,-4.38549 1.50862,-4.36128 -0.345726,0.007 -3.02245,2.38107 -5.948278,5.27817 -12.401934,12.28016 -16.383366,19.41683 -14.55443,26.08863 1.537868,5.61 12.341007,6.9595 26.662908,3.3308 z m 0.502873,-4.6659 c 0.968032,-0.2837 2.891522,-0.7805 4.274424,-1.1038 4.116276,-0.9626 15.176354,-5.2627 21.40763,-8.3231 13.364903,-6.56414 31.50433,-19.27176 36.05225,-25.25653 0.75696,-0.99614 2.01453,-2.43876 2.79455,-3.2058 1.9532,-1.92069 4.96176,-8.62177 4.77212,-10.62912 -0.0857,-0.90752 -1.06105,-2.53364 -2.16737,-3.61357 -1.70587,-1.66518 -3.01725,-1.96351 -8.63081,-1.96351 -3.64062,0 -6.79364,0.3387 -7.006703,0.75268 -0.733878,1.4259 0.684135,2.83306 3.380243,3.35444 4.49802,0.86979 6.19789,2.34135 6.38499,5.52734 0.12421,2.11527 -0.24322,3.49482 -1.56887,5.89054 -8.218766,14.85288 -45.026557,35.22913 -63.715441,35.27203 -6.444774,0.015 -8.372025,-0.9737 -8.829001,-4.5283 -0.462623,-3.59859 0.446556,-5.95639 4.052258,-10.50884 3.267664,-4.12566 3.717755,-5.15795 2.755287,-6.31924 -0.731357,-0.88245 -8.691295,7.60124 -11.613347,12.37749 -5.905203,9.65239 -3.081711,13.85609 8.857504,13.18739 3.872126,-0.2169 7.832254,-0.6265 8.800286,-0.9101 z m -4.022987,-5.4506 c 0,-1.4265 -1.461181,-12.06365 -1.728946,-12.58638 -0.560968,-1.09518 -2.688218,0.95368 -4.431254,4.26792 -2.732489,5.19566 -2.496199,6.96546 1.114385,8.34666 2.692314,1.03 5.045815,1.0168 5.045815,-0.028 z m 8.045975,-0.5506 c 6.792572,-1.5177 21.315101,-7.39455 27.909476,-11.2942 3.719619,-2.19964 12.666764,-8.01059 13.577583,-8.8183 0.553161,-0.49054 2.533225,-2.21015 4.400143,-3.82136 1.866917,-1.61122 3.394394,-3.51084 3.394394,-4.22138 0,-2.93731 -2.029299,-14.83407 -3.353953,-19.6625 -2.122981,-7.73838 -8.769409,-20.25163 -12.737996,-23.98183 -4.935331,-4.63889 -8.253681,-6.23821 -12.943299,-6.23821 -5.189629,0 -7.788157,1.17805 -12.954683,5.87303 -4.838141,4.39656 -7.889562,9.50207 -11.012883,18.42628 -5.367307,15.33587 -6.784955,36.57998 -3.475039,52.07497 0.639209,2.9924 0.83014,3.198 2.560583,2.7575 1.028426,-0.2618 3.114482,-0.7542 4.635674,-1.094 z m 54.938926,-33.78223 c 2.72622,-4.74595 1.57866,-7.22508 -3.86905,-8.35847 -2.574531,-0.5356 -2.874832,-0.41756 -2.592428,1.0192 0.175668,0.89374 0.561748,3.66663 0.857948,6.16193 0.90048,7.58603 0.7646,7.30459 2.58231,5.34814 0.90107,-0.96984 2.26062,-2.8467 3.02122,-4.1708 z"
       id="path2996"
       inkscape:connector-curvature="0" />
  </g>
</svg>
