<?xml version="1.0" encoding="UTF-8" standalone="no"?>
<!-- Created with Inkscape (http://www.inkscape.org/) -->

<svg
   xmlns:dc="http://purl.org/dc/elements/1.1/"
   xmlns:cc="http://creativecommons.org/ns#"
   xmlns:rdf="http://www.w3.org/1999/02/22-rdf-syntax-ns#"
   xmlns:svg="http://www.w3.org/2000/svg"
   xmlns="http://www.w3.org/2000/svg"
   xmlns:sodipodi="http://sodipodi.sourceforge.net/DTD/sodipodi-0.dtd"
   xmlns:inkscape="http://www.inkscape.org/namespaces/inkscape"
   width="283.46457"
   height="283.46457"
   id="svg2"
   version="1.1"
   inkscape:version="0.48.5 r10040"
   sodipodi:docname="ivy.gcode">
  <defs
     id="defs4" />
  <sodipodi:namedview
     id="base"
     pagecolor="#ffffff"
     bordercolor="#666666"
     borderopacity="1.0"
     inkscape:pageopacity="0.0"
     inkscape:pageshadow="2"
     inkscape:zoom="1.979899"
     inkscape:cx="133.3479"
     inkscape:cy="230.98885"
     inkscape:document-units="mm"
     inkscape:current-layer="layer1"
     showgrid="false"
     units="mm"
     inkscape:window-width="1366"
     inkscape:window-height="705"
     inkscape:window-x="-8"
     inkscape:window-y="-8"
     inkscape:window-maximized="1" />
  <metadata
     id="metadata7">
    <rdf:RDF>
      <cc:Work
         rdf:about="">
        <dc:format>image/svg+xml</dc:format>
        <dc:type
           rdf:resource="http://purl.org/dc/dcmitype/StillImage" />
        <dc:title></dc:title>
      </cc:Work>
    </rdf:RDF>
  </metadata>
  <g
     inkscape:label="Layer 1"
     inkscape:groupmode="layer"
     id="layer1"
     transform="translate(0,-768.89763)">
    <path
       style="fill:#000000"
       d="m 223.90902,863.75844 c -23.32809,-3.22769 -40.37556,-22.78548 -40.37556,-46.32106 0,-18.42723 10.22719,-34.65167 26.63851,-42.2594 7.18362,-3.33008 12.28777,-4.37345 21.24336,-4.34247 9.06876,0.0314 14.13166,1.12104 21.18498,4.55957 2.62852,1.28143 5.14657,2.29549 5.59567,2.25348 0.44911,-0.042 0.75258,0.14241 0.6744,0.40985 -0.0782,0.26743 1.43912,1.67823 3.37179,3.13512 7.03366,5.30209 13.31757,14.97993 15.84949,24.40975 1.15624,4.30626 1.31694,6.41294 1.02177,13.39447 -0.2135,5.04951 -0.78794,9.60264 -1.4711,11.6601 -1.08097,3.25554 -1.07147,3.47163 0.26702,6.07571 1.76893,3.44151 1.76267,6.88512 -0.0188,10.35106 -2.1045,4.09436 -4.75279,5.58716 -10.08236,5.68323 -4.13278,0.0745 -4.72662,0.28312 -9.51383,3.3422 -10.72579,6.85394 -22.00099,9.3619 -34.38532,7.64839 z m 22.56403,-4.00825 c 5.4155,-1.73083 11.27163,-4.87954 13.52716,-7.27327 1.14052,-1.2104 1.15936,-1.39064 0.18225,-1.74376 -0.59936,-0.21662 -1.73808,-1.38186 -2.5305,-2.5894 -1.16937,-1.78199 -1.38015,-2.8768 -1.11899,-5.81216 0.17697,-1.98911 0.54932,-4.1196 0.82744,-4.73442 0.41549,-0.91847 -0.25933,-0.77697 -3.784,0.79345 -2.35932,1.0512 -4.74489,1.90472 -5.30127,1.8967 -0.55637,-0.008 0.65754,-0.68413 2.69757,-1.50249 7.53532,-3.02277 8.55641,-3.51148 9.44606,-4.52108 2.38507,-2.70661 8.17663,-3.76994 12.347,-2.26692 2.48925,0.89714 2.43913,0.9092 3.0965,-0.74488 0.49901,-1.25556 0.31213,-1.47677 -1.53911,-1.82184 l -2.10708,-0.39275 2.05859,-0.0836 c 1.91449,-0.0777 2.10782,-0.30992 2.76171,-3.31625 0.65373,-3.00566 0.6039,-3.2704 -0.70981,-3.77066 -1.04205,-0.3968 -1.12208,-0.5486 -0.30489,-0.57828 1.83218,-0.0666 2.89745,-5.1103 1.08374,-5.13121 -0.58327,-0.007 -0.54365,-0.18811 0.12858,-0.58869 0.82646,-0.4925 0.8493,-1.32115 0.15295,-5.54788 -0.45023,-2.73289 -1.11694,-5.06476 -1.48156,-5.18193 -0.36463,-0.11717 -0.51051,-0.44534 -0.3242,-0.72926 0.66972,-1.02058 -2.66095,-8.4595 -3.92791,-8.77284 -0.88238,-0.21823 -0.99951,-0.44434 -0.4084,-0.78841 0.621,-0.36147 0.45177,-1.05698 -0.67498,-2.77402 -0.82708,-1.26038 -1.78135,-2.13005 -2.12058,-1.93259 -0.33923,0.19747 -0.61679,-0.19448 -0.61679,-0.871 0,-0.67651 -0.45522,-1.58584 -1.01159,-2.02071 -0.55638,-0.43489 -1.01206,-0.54134 -1.01264,-0.23656 -5.8e-4,0.30477 -0.53166,-0.41648 -1.18018,-1.60278 -0.64853,-1.18631 -2.4645,-3.02074 -4.03549,-4.07652 -2.6363,-1.77172 -2.94803,-1.84175 -4.04636,-0.909 -1.8031,1.53129 -10.48297,6.18971 -11.53306,6.18971 -0.50764,0 1.16951,-1.01376 3.72699,-2.25279 6.2022,-3.00481 8.9654,-5.13608 7.68881,-5.93044 -0.52274,-0.32527 -1.40708,-0.42636 -1.96521,-0.22464 -0.6087,0.21998 -0.83921,0.0992 -0.57606,-0.30182 0.48859,-0.74456 -3.72917,-2.60418 -9.99615,-4.4073 -3.06324,-0.88136 -6.17643,-1.15837 -12.81346,-1.14015 -7.68042,0.0211 -9.44237,0.23614 -14.21512,1.735 -8.88751,2.7911 -17.23568,8.53842 -22.92529,15.783 -2.63783,3.35875 -2.86057,4.04725 -1.0071,3.11302 0.71745,-0.36163 1.70375,-0.64632 2.19178,-0.63265 0.48803,0.0137 -0.0737,0.4186 -1.24827,0.89983 -2.29265,0.9393 -4.94553,3.14632 -4.94553,4.11435 0,0.32614 0.83457,0.71203 1.85458,0.85757 1.78454,0.2546 1.77457,0.26818 -0.26397,0.35977 -1.7886,0.0803 -2.27929,0.47351 -3.15065,2.52454 -0.56765,1.33617 -1.23666,3.45633 -1.48667,4.7115 -0.40785,2.0475 -0.29194,2.31122 1.12747,2.56534 1.43649,0.25718 1.41141,0.2912 -0.27253,0.36974 -1.83008,0.0854 -2.78818,1.98118 -1.01159,2.00167 0.55975,0.007 0.5031,0.21248 -0.1686,0.61314 -1.13067,0.67443 -1.36077,7.48148 -0.43518,12.87415 0.43122,2.51237 0.7647,3.02371 1.99389,3.05723 l 1.47606,0.0403 -1.4918,0.56552 -1.49179,0.56551 1.33857,3.66423 c 0.73621,2.01534 1.56061,3.87336 1.83199,4.12895 0.27139,0.2556 2.09018,-0.68202 4.04176,-2.0836 3.53757,-2.54062 7.42823,-4.40717 9.06886,-4.3508 0.47556,0.0163 -0.5933,0.56623 -2.37523,1.22198 -1.78194,0.65575 -4.66497,2.26754 -6.40673,3.58177 -1.74177,1.31422 -3.29201,2.47805 -3.44499,2.58626 -0.15298,0.10819 0.087,0.95143 0.53317,1.87381 l 0.81133,1.67706 1.49,-1.26636 c 2.44185,-2.07534 6.7875,-4.62304 7.88468,-4.6225 0.563,2.7e-4 -0.20129,0.57156 -1.69842,1.26953 -1.49713,0.69796 -3.76081,2.08577 -5.03041,3.084 l -2.30834,1.81497 1.26395,1.83793 c 2.38581,3.46925 4.00382,4.67094 6.43648,4.78034 2.14056,0.0962 2.18218,0.13126 0.44695,0.37607 -1.81835,0.25654 -1.85709,0.32858 -0.77963,1.44988 0.62359,0.64897 1.63637,1.02934 2.25062,0.84528 0.95433,-0.28596 0.97012,-0.23717 0.10852,0.33534 -0.8721,0.57949 -0.82655,0.79934 0.3372,1.6276 0.74003,0.52668 1.57744,0.9667 1.86092,0.97781 0.28349,0.0105 4.48854,-1.85489 9.34456,-4.14667 4.85603,-2.29178 8.93795,-4.06438 9.07094,-3.93913 0.13299,0.12525 -3.69538,2.06427 -8.50749,4.3089 -4.81212,2.24465 -8.65185,4.37453 -8.53274,4.73308 0.39667,1.19401 11.53446,6.08451 15.98071,7.01697 7.01285,1.47074 19.25561,0.89823 25.848,-1.20874 z m -43.3822,-10.55514 c 0.55637,-0.33864 1.31506,-0.6157 1.68598,-0.6157 0.37091,0 0.21918,0.27706 -0.3372,0.6157 -0.55637,0.33864 -1.31506,0.61569 -1.68598,0.61569 -0.37092,0 -0.21918,-0.27705 0.3372,-0.61569 z m 4.04635,-1.58788 c 0.92729,-0.49925 1.98946,-0.90772 2.36038,-0.90772 0.37091,0 -0.0843,0.40847 -1.01159,0.90772 -0.92729,0.49924 -1.98946,0.90771 -2.36038,0.90771 -0.37091,0 0.0843,-0.40847 1.01159,-0.90771 z m -5.21249,-0.70132 c 0.22409,-0.21106 0.80576,-0.23361 1.29259,-0.0501 0.53798,0.20275 0.37818,0.35325 -0.40745,0.38373 -0.71092,0.0275 -1.10924,-0.12255 -0.88514,-0.3336 z m 3.52651,-0.88656 c 1.85396,-0.75032 2.91875,-0.75032 1.68598,0 -0.55637,0.33863 -1.4668,0.59999 -2.02318,0.58077 -0.66701,-0.0229 -0.55215,-0.22085 0.3372,-0.58077 z m 5.11414,0.39285 c 0.68705,-0.59243 8.71091,-4.18896 8.71091,-3.90448 0,0.35615 -7.79106,4.14678 -8.52308,4.14678 -0.25785,0 -0.34237,-0.10901 -0.18783,-0.2423 z m -6.96872,-1.44867 c 0.46365,-0.17619 1.22234,-0.17619 1.68598,0 0.46365,0.17621 0.0843,0.32038 -0.84299,0.32038 -0.92729,0 -1.30663,-0.14417 -0.84299,-0.32038 z m 5.56374,-0.21449 c 0.55637,-0.33864 1.31506,-0.6157 1.68598,-0.6157 0.37092,0 0.21918,0.27706 -0.3372,0.6157 -0.55637,0.33863 -1.31506,0.61569 -1.68598,0.61569 -0.37091,0 -0.21917,-0.27706 0.3372,-0.61569 z m 0.3372,-1.7859 c 1.85457,-0.96958 4.28239,-2.30303 5.39514,-2.9632 1.11274,-0.66018 1.7197,-0.88105 1.34878,-0.49083 -0.97447,1.02519 -8.55726,5.24203 -9.40182,5.22842 -0.39274,-0.006 0.80332,-0.80481 2.6579,-1.77439 z m 5.26553,-0.74218 c 1.74307,-1.04111 4.88396,-3.54202 6.97974,-5.5576 3.39063,-3.26086 3.56088,-3.35649 1.54499,-0.86787 -2.24601,2.7727 -9.55395,8.31839 -10.96172,8.31839 -0.40273,0 0.69391,-0.85182 2.43699,-1.89292 z m 10.09094,1.50919 c 0.2241,-0.21107 0.80576,-0.23363 1.29259,-0.0501 0.53799,0.20275 0.37818,0.35326 -0.40745,0.38373 -0.71092,0.0275 -1.10923,-0.12254 -0.88514,-0.33359 z m 3.00789,-0.66805 c 0.45658,-0.17398 1.36701,-0.18456 2.02317,-0.0235 0.65617,0.16103 0.2826,0.30338 -0.83015,0.31632 -1.11275,0.013 -1.64961,-0.11881 -1.19302,-0.29279 z m 4.39638,-0.65635 c 0.6491,-0.15976 1.71127,-0.15976 2.36038,0 0.6491,0.15976 0.11801,0.29047 -1.18019,0.29047 -1.29821,0 -1.82929,-0.13071 -1.18019,-0.29047 z m -10.2994,-2.07677 c 2.18535,-1.93466 9.10459,-4.38 10.00197,-3.53483 0.1945,0.18317 -0.10573,0.33304 -0.66717,0.33304 -0.56143,0 -1.72062,0.57165 -2.57596,1.27031 -1.72738,1.41099 -2.33577,1.62536 -1.65093,0.58174 0.28626,-0.43622 -0.1123,-0.6108 -1.08756,-0.47636 -0.84668,0.11673 -1.68046,0.61502 -1.85286,1.10735 -0.21834,0.62357 0.032,0.7703 0.8252,0.48365 0.70136,-0.25349 0.97274,-0.15872 0.70667,0.24675 -0.23758,0.36204 -0.93617,0.58603 -1.55241,0.49775 -0.61625,-0.0883 -1.87914,0.22815 -2.80643,0.70322 -1.3055,0.66884 -1.15668,0.3952 0.65948,-1.21262 z m 15.02015,1.44161 c 0.6491,-0.15975 1.71127,-0.15975 2.36037,0 0.64911,0.15976 0.11802,0.29047 -1.18018,0.29047 -1.29821,0 -1.82929,-0.13071 -1.18019,-0.29047 z m 4.38355,-0.61797 c 0.46365,-0.1762 1.22234,-0.1762 1.68598,0 0.46365,0.1762 0.0843,0.32036 -0.84299,0.32036 -0.92729,0 -1.30663,-0.14416 -0.84299,-0.32036 z m 3.37196,-0.63516 c 0.46365,-0.17619 1.22234,-0.17619 1.68598,0 0.46365,0.17621 0.0843,0.32037 -0.84299,0.32037 -0.92729,0 -1.30663,-0.14416 -0.84299,-0.32037 z m -25.66449,-3.35146 c 0.28214,-1.01614 -0.23353,-1.39988 -2.92906,-2.17967 -1.79932,-0.52054 -2.73066,-0.96633 -2.06964,-0.99067 3.40201,-0.12522 7.29617,2.86697 5.26777,4.04765 -0.33633,0.19577 -0.45741,-0.19903 -0.26907,-0.87731 z m 13.87667,-1.0577 c 0.2241,-0.21105 0.80577,-0.23361 1.29259,-0.0501 0.53798,0.20277 0.37819,0.35327 -0.40745,0.38375 -0.71092,0.0275 -1.10923,-0.12255 -0.88514,-0.33361 z m 2.69757,-0.63515 c 0.2241,-0.21105 0.80577,-0.23362 1.29259,-0.0501 0.53798,0.20276 0.37819,0.35327 -0.40745,0.38374 -0.71092,0.0275 -1.10923,-0.12254 -0.88514,-0.3336 z m 2.69757,-0.63516 c 0.2241,-0.21105 0.80577,-0.23361 1.29259,-0.0501 0.53798,0.20276 0.37819,0.35326 -0.40745,0.38373 -0.71092,0.0276 -1.10923,-0.12253 -0.88514,-0.33359 z m 13.14015,-1.20414 c -0.24369,-1.20061 -0.0367,-1.58788 0.84867,-1.58788 0.64403,0 2.12478,-0.17967 3.29055,-0.39926 2.87791,-0.54209 2.24515,1.06414 -0.99193,2.51797 -2.94592,1.32308 -2.7648,1.35363 -3.14729,-0.53083 z m 4.15521,-0.72119 c 0.15455,-0.12734 -0.52828,-0.23154 -1.51738,-0.23154 -1.16729,0 -1.79838,0.34218 -1.79838,0.97507 0,0.80807 0.2599,0.84773 1.51738,0.23156 0.83456,-0.40896 1.64383,-0.84773 1.79838,-0.97509 z m -53.71255,1.29018 c 0.22409,-0.21105 0.80576,-0.23361 1.29259,-0.0501 0.53798,0.20276 0.37818,0.35326 -0.40745,0.38373 -0.71092,0.0276 -1.10924,-0.12254 -0.88514,-0.3336 z m 39.43791,-0.0369 c 0.46365,-0.1762 1.22234,-0.1762 1.68598,0 0.46365,0.17619 0.0843,0.32036 -0.84299,0.32036 -0.92729,0 -1.30663,-0.14417 -0.84299,-0.32036 z m -34.74329,-0.66834 c 1.01338,-0.14493 2.83424,-0.14784 4.04635,-0.007 1.21212,0.14136 0.383,0.25993 -1.8425,0.2635 -2.22549,0.004 -3.21723,-0.11205 -2.20385,-0.25702 z m 38.11525,0.0331 c 0.46365,-0.1762 1.22234,-0.1762 1.68598,0 0.46365,0.1762 0.0843,0.32036 -0.84299,0.32036 -0.92729,0 -1.30663,-0.14416 -0.84299,-0.32036 z m -18.04,-0.82061 c 0.55638,-0.3546 1.59326,-0.6491 2.30418,-0.65445 1.72539,-0.013 1.18711,0.35056 -1.29259,0.87296 -1.47753,0.31126 -1.75035,0.25235 -1.01159,-0.21851 z m 21.41197,0.18549 c 0.46364,-0.17619 1.22233,-0.17619 1.68598,0 0.46364,0.17619 0.0843,0.32036 -0.84299,0.32036 -0.92729,0 -1.30664,-0.14417 -0.84299,-0.32036 z m -15.84823,-1.28749 c 0.6491,-0.15975 1.71127,-0.15975 2.36038,0 0.6491,0.15976 0.11801,0.29048 -1.18019,0.29048 -1.29821,0 -1.82929,-0.13072 -1.18019,-0.29048 z m 7.41832,-0.66418 c 1.76185,-0.13085 4.64488,-0.13085 6.40673,0 1.76185,0.13084 0.32033,0.23788 -3.20337,0.23788 -3.5237,0 -4.96521,-0.10702 -3.20336,-0.23788 z m 19.88174,0.0502 c 0.45659,-0.17398 1.36702,-0.18458 2.02318,-0.0235 0.65616,0.16104 0.28259,0.30339 -0.83016,0.31634 -1.11274,0.013 -1.6496,-0.11881 -1.19302,-0.2928 z m -40.78791,-0.65637 c 0.6491,-0.15976 1.71127,-0.15976 2.36038,0 0.6491,0.15976 0.11801,0.29048 -1.18019,0.29048 -1.29821,0 -1.82929,-0.13072 -1.18019,-0.29048 z m 7.08112,0.0172 c 0.46365,-0.17619 1.22234,-0.17619 1.68598,0 0.46365,0.1762 0.0843,0.32037 -0.84299,0.32037 -0.92729,0 -1.30663,-0.14417 -0.84299,-0.32037 z m 27.3209,-0.0186 c 0.6535,-0.16056 2.73247,-1.27067 4.61992,-2.46694 1.88745,-1.19625 3.93232,-2.16382 4.54415,-2.15015 0.61183,0.0137 0.0637,0.45333 -1.2181,0.97702 -1.28179,0.52368 -3.31001,1.65577 -4.50716,2.51575 -1.19715,0.85997 -2.72796,1.53045 -3.40182,1.48993 -1.13811,-0.0685 -1.14074,-0.0944 -0.037,-0.36561 z m 10.43225,0.0227 c 0.45658,-0.17398 1.36701,-0.18458 2.02318,-0.0235 0.65616,0.16104 0.28259,0.30339 -0.83016,0.31634 -1.11275,0.013 -1.64961,-0.11881 -1.19302,-0.2928 z m -48.37483,-0.85376 c 0,-0.34934 0.45522,-0.63515 1.01159,-0.63515 0.55637,0 1.01159,0.28581 1.01159,0.63515 0,0.34933 -0.45522,0.63516 -1.01159,0.63516 -0.55637,0 -1.01159,-0.28583 -1.01159,-0.63516 z m 13.99365,0.21451 c 0.46364,-0.17621 1.22233,-0.17621 1.68598,0 0.46364,0.17619 0.0843,0.32036 -0.84299,0.32036 -0.92729,0 -1.30664,-0.14417 -0.84299,-0.32036 z m 39.10193,0.004 c 0.45658,-0.17398 1.36701,-0.18457 2.02317,-0.0235 0.65617,0.16103 0.28259,0.30339 -0.83015,0.31633 -1.11275,0.013 -1.64961,-0.11881 -1.19302,-0.29279 z m -64.22305,-0.85346 c 0.74183,-0.30024 1.95573,-0.53747 2.69757,-0.5272 1.08427,0.015 1.01815,0.11839 -0.3372,0.5272 -2.30586,0.6955 -4.07888,0.6955 -2.36037,0 z m 7.75551,0 c -1.23277,-0.75032 -0.16798,-0.75032 1.68598,0 0.88935,0.35992 1.00421,0.55775 0.3372,0.58077 -0.55638,0.0192 -1.46681,-0.24213 -2.02318,-0.58077 z m 21.39913,0.21853 c 0.45658,-0.17398 1.36701,-0.18458 2.02317,-0.0235 0.65617,0.16105 0.28259,0.30339 -0.83015,0.31634 -1.11275,0.013 -1.64961,-0.11881 -1.19302,-0.2928 z m -14.8238,-0.63918 c 0.46364,-0.17621 1.22233,-0.17621 1.68598,0 0.46364,0.17619 0.0843,0.32036 -0.84299,0.32036 -0.92729,0 -1.30664,-0.14417 -0.84299,-0.32036 z m 18.55984,0.0369 c 0.2241,-0.21105 0.80576,-0.23361 1.29258,-0.0501 0.53799,0.20276 0.37819,0.35326 -0.40744,0.38374 -0.71092,0.0275 -1.10924,-0.12254 -0.88514,-0.33359 z m -28.32449,-0.63515 c 0.2241,-0.21105 0.80576,-0.23362 1.29259,-0.0501 0.53799,0.20276 0.37818,0.35327 -0.40745,0.38375 -0.71092,0.0275 -1.10923,-0.12255 -0.88514,-0.3336 z m 14.82259,-0.0789 c 1.39093,-0.13703 3.66701,-0.13703 5.05794,0 1.39094,0.13704 0.2529,0.24915 -2.52897,0.24915 -2.78187,0 -3.91991,-0.11205 -2.52897,-0.24915 z m 16.19947,0.0789 c 0.2241,-0.21106 0.80576,-0.23362 1.29258,-0.0501 0.53799,0.20275 0.37819,0.35326 -0.40744,0.38373 -0.71092,0.0275 -1.10924,-0.12254 -0.88514,-0.33359 z m -6.76584,-0.68782 c 0.64478,-0.15897 1.85869,-0.16473 2.69757,-0.0128 0.83888,0.15192 0.31134,0.28199 -1.17232,0.28904 -1.48367,0.007 -2.17003,-0.11726 -1.52525,-0.27623 z m 9.78656,0.0158 c 0.46364,-0.17621 1.22233,-0.17621 1.68598,0 0.46364,0.17619 0.0843,0.32036 -0.84299,0.32036 -0.92729,0 -1.30664,-0.14417 -0.84299,-0.32036 z m -53.60016,-0.59825 c 0.2241,-0.21106 0.80576,-0.23361 1.29259,-0.0501 0.53798,0.20275 0.37818,0.35326 -0.40745,0.38374 -0.71092,0.0275 -1.10923,-0.12255 -0.88514,-0.3336 z m 49.23065,0 c 0.2241,-0.21106 0.80577,-0.23361 1.29259,-0.0501 0.53798,0.20275 0.37819,0.35326 -0.40745,0.38374 -0.71092,0.0275 -1.10923,-0.12255 -0.88514,-0.3336 z m 7.41832,0 c 0.2241,-0.21106 0.80576,-0.23361 1.29259,-0.0501 0.53798,0.20275 0.37818,0.35326 -0.40745,0.38374 -0.71092,0.0275 -1.10923,-0.12255 -0.88514,-0.3336 z m -53.9514,-0.63515 c 0.2241,-0.21107 0.80576,-0.23362 1.29259,-0.0501 0.53798,0.20275 0.37818,0.35325 -0.40745,0.38373 -0.71092,0.0275 -1.10923,-0.12254 -0.88514,-0.33359 z m 56.97212,-0.0369 c 0.46364,-0.1762 1.22233,-0.1762 1.68598,0 0.46364,0.1762 0.0843,0.32037 -0.84299,0.32037 -0.92729,0 -1.30664,-0.14417 -0.84299,-0.32037 z m -54.27455,-0.59824 c 0.2241,-0.21107 0.80576,-0.23362 1.29259,-0.0501 0.53798,0.20275 0.37818,0.35326 -0.40745,0.38373 -0.71092,0.0275 -1.10923,-0.12254 -0.88514,-0.33359 z m 57.32336,0 c 0.2241,-0.21107 0.80576,-0.23362 1.29259,-0.0501 0.53798,0.20275 0.37819,0.35326 -0.40745,0.38373 -0.71092,0.0275 -1.10923,-0.12254 -0.88514,-0.33359 z m 12.79155,-0.0527 c 0.64478,-0.15897 1.85868,-0.16475 2.69757,-0.0129 0.83888,0.15192 0.31134,0.28199 -1.17233,0.28904 -1.48366,0.007 -2.17002,-0.11725 -1.52524,-0.27622 z m -67.09419,-0.61942 c 0.46364,-0.17619 1.22234,-0.17619 1.68598,0 0.46364,0.17621 0.0843,0.32037 -0.84299,0.32037 -0.92729,0 -1.30664,-0.14416 -0.84299,-0.32037 z m 48.05046,-0.21449 c 0.55638,-0.33864 1.31507,-0.61571 1.68598,-0.61571 0.37092,0 0.21918,0.27707 -0.33719,0.61571 -0.55638,0.33863 -1.31507,0.61569 -1.68598,0.61569 -0.37092,0 -0.21918,-0.27706 0.33719,-0.61569 z m 8.94975,0.25141 c 0.2241,-0.21106 0.80576,-0.23363 1.29259,-0.0501 0.53798,0.20275 0.37819,0.35326 -0.40745,0.38374 -0.71092,0.0275 -1.10923,-0.12255 -0.88514,-0.3336 z m 15.51103,0 c 0.22409,-0.21106 0.80576,-0.23363 1.29259,-0.0501 0.53798,0.20275 0.37818,0.35326 -0.40745,0.38374 -0.71092,0.0275 -1.10924,-0.12255 -0.88514,-0.3336 z m -69.46243,-0.63516 c 0.2241,-0.21106 0.80576,-0.23362 1.29259,-0.0501 0.53799,0.20275 0.37818,0.35325 -0.40745,0.38373 -0.71092,0.0275 -1.10923,-0.12254 -0.88514,-0.33359 z m 56.97212,-0.0369 c 0.46364,-0.17619 1.22234,-0.17619 1.68598,0 0.46365,0.17621 0.0843,0.32038 -0.84299,0.32038 -0.92729,0 -1.30663,-0.14417 -0.84299,-0.32038 z m 15.49819,0.004 c 0.45659,-0.17398 1.36702,-0.18456 2.02318,-0.0235 0.65616,0.16104 0.28259,0.3034 -0.83016,0.31634 -1.11274,0.013 -1.6496,-0.11881 -1.19302,-0.29281 z m -68.78803,-0.63515 c 0.45658,-0.17398 1.36701,-0.18456 2.02318,-0.0235 0.65616,0.16104 0.28259,0.30339 -0.83016,0.31633 -1.11275,0.013 -1.64961,-0.11881 -1.19302,-0.2928 z m 46.37732,-1.15447 c 1.48366,-0.86065 3.00104,-1.57226 3.37196,-1.58138 0.37092,-0.009 -0.53951,0.68759 -2.02318,1.54823 -1.48366,0.86066 -3.00104,1.57227 -3.37196,1.58139 -0.37092,0.009 0.53951,-0.6876 2.02318,-1.54824 z m 11.63327,1.12306 c 0.83456,-0.1514 2.2002,-0.1514 3.03476,0 0.83456,0.15139 0.15174,0.27526 -1.51738,0.27526 -1.66912,0 -2.35194,-0.12387 -1.51738,-0.27526 z m -53.9514,-0.60756 c 0.46364,-0.17619 1.22233,-0.17619 1.68598,0 0.46364,0.17621 0.0843,0.32038 -0.84299,0.32038 -0.92729,0 -1.30664,-0.14417 -0.84299,-0.32038 z m 59.3337,0.004 c 0.45659,-0.17398 1.36702,-0.18456 2.02318,-0.0235 0.65616,0.16104 0.28259,0.3034 -0.83016,0.31634 -1.11274,0.013 -1.6496,-0.11881 -1.19302,-0.29281 z m -56.28489,-0.60227 c 0.2241,-0.21105 0.80576,-0.23361 1.29259,-0.0501 0.53799,0.20276 0.37818,0.35326 -0.40745,0.38373 -0.71092,0.0276 -1.10923,-0.12253 -0.88514,-0.3336 z m 60.34408,-0.0367 c 0.46365,-0.17619 1.22234,-0.17619 1.68598,0 0.46365,0.17621 0.0843,0.32038 -0.84299,0.32038 -0.92729,0 -1.30663,-0.14417 -0.84299,-0.32038 z m -55.80598,-1.16723 c 1.29821,-0.47085 2.81559,-0.85609 3.37197,-0.85609 0.55637,0 -0.0506,0.38524 -1.34879,0.85609 -1.2982,0.47084 -2.81559,0.85608 -3.37196,0.85608 -0.55637,0 0.0506,-0.38524 1.34878,-0.85608 z m 39.29741,-0.70131 c 0.2241,-0.21106 0.80576,-0.23362 1.29259,-0.0501 0.53798,0.20276 0.37819,0.35326 -0.40745,0.38374 -0.71091,0.0275 -1.10923,-0.12254 -0.88514,-0.33359 z m 2.69757,-0.63516 c 0.2241,-0.21105 0.80576,-0.23362 1.29259,-0.0501 0.53798,0.20276 0.37819,0.35327 -0.40745,0.38374 -0.71091,0.0275 -1.10923,-0.12254 -0.88514,-0.33359 z m -71.99783,-1.76109 c 0.6375,-0.91634 1.28661,-1.66609 1.44246,-1.66609 0.48784,0 -1.08233,2.44787 -1.86085,2.90102 -0.40739,0.23714 -0.21912,-0.31858 0.41839,-1.23493 z m 74.6954,1.12593 c 0.2241,-0.21105 0.80576,-0.23361 1.29259,-0.0501 0.53798,0.20276 0.37819,0.35326 -0.40745,0.38374 -0.71091,0.0275 -1.10923,-0.12254 -0.88514,-0.33359 z m 3.02072,-0.67206 c 0.46365,-0.17619 1.22234,-0.17619 1.68598,0 0.46365,0.17621 0.0843,0.32037 -0.84299,0.32037 -0.92729,0 -1.30663,-0.14416 -0.84299,-0.32037 z m -36.74034,-0.59824 c 0.2241,-0.21105 0.80576,-0.23362 1.29259,-0.0501 0.53798,0.20276 0.37818,0.35327 -0.40745,0.38375 -0.71092,0.0275 -1.10923,-0.12255 -0.88514,-0.3336 z m 39.78916,0 c 0.22409,-0.21105 0.80575,-0.23362 1.29258,-0.0501 0.53799,0.20276 0.37819,0.35327 -0.40744,0.38375 -0.71092,0.0275 -1.10924,-0.12255 -0.88514,-0.3336 z m -37.09159,-0.63516 c 0.2241,-0.21105 0.80576,-0.23361 1.29259,-0.0501 0.53798,0.20276 0.37818,0.35327 -0.40745,0.38374 -0.71092,0.0275 -1.10923,-0.12254 -0.88514,-0.33359 z m 39.78916,0 c 0.22409,-0.21105 0.80575,-0.23361 1.29258,-0.0501 0.53799,0.20276 0.37819,0.35327 -0.40744,0.38374 -0.71092,0.0275 -1.10924,-0.12254 -0.88514,-0.33359 z m -36.76844,-0.67206 c 0.46364,-0.17619 1.22233,-0.17619 1.68598,0 0.46364,0.1762 0.0843,0.32037 -0.84299,0.32037 -0.92729,0 -1.30664,-0.14417 -0.84299,-0.32037 z m 39.77632,0.004 c 0.45659,-0.17399 1.36701,-0.18458 2.02318,-0.0235 0.65616,0.16105 0.28259,0.30339 -0.83016,0.31634 -1.11275,0.013 -1.6496,-0.11882 -1.19302,-0.2928 z m -83.93498,-0.60207 c 0.22409,-0.21105 0.80576,-0.23361 1.29259,-0.0501 0.53798,0.20276 0.37818,0.35326 -0.40745,0.38374 -0.71092,0.0275 -1.10923,-0.12254 -0.88514,-0.3336 z m 47.53062,-0.0369 c 0.46365,-0.17619 1.22234,-0.17619 1.68598,0 0.46365,0.17619 0.0843,0.32036 -0.84299,0.32036 -0.92729,0 -1.30663,-0.14417 -0.84299,-0.32036 z m -44.5099,-0.63515 c 0.46364,-0.1762 1.22233,-0.1762 1.68598,0 0.46364,0.17619 0.0843,0.32036 -0.84299,0.32036 -0.92729,0 -1.30664,-0.14417 -0.84299,-0.32036 z m 48.55626,0 c 0.46364,-0.1762 1.22233,-0.1762 1.68598,0 0.46364,0.17619 0.0843,0.32036 -0.84299,0.32036 -0.92729,0 -1.30664,-0.14417 -0.84299,-0.32036 z m -45.1843,-0.63515 c 0.46364,-0.1762 1.22234,-0.1762 1.68598,0 0.46364,0.17619 0.0843,0.32036 -0.84299,0.32036 -0.92729,0 -1.30664,-0.14417 -0.84299,-0.32036 z m 48.23311,0.0369 c 0.2241,-0.21106 0.80576,-0.23363 1.29259,-0.0501 0.53798,0.20275 0.37818,0.35326 -0.40745,0.38374 -0.71092,0.0275 -1.10923,-0.12255 -0.88514,-0.3336 z m -44.86115,-0.67206 c 0.46365,-0.17619 1.22234,-0.17619 1.68598,0 0.46365,0.17619 0.0843,0.32036 -0.84299,0.32036 -0.92729,0 -1.30663,-0.14417 -0.84299,-0.32036 z m 55.38409,-3.10915 c 3.84804,-1.93081 7.09949,-3.4135 7.22544,-3.29487 0.28982,0.27297 -12.81274,6.82804 -13.62219,6.81504 -0.32982,-0.005 2.54872,-1.58938 6.39675,-3.52017 z m -52.33527,2.5109 c 0.22409,-0.21105 0.80576,-0.23361 1.29258,-0.0501 0.53799,0.20276 0.37819,0.35326 -0.40744,0.38373 -0.71092,0.0276 -1.10924,-0.12253 -0.88514,-0.33359 z m -5.08483,-0.66803 c 0.45658,-0.17398 1.36701,-0.18458 2.02318,-0.0235 0.65616,0.16103 0.28259,0.30338 -0.83016,0.31632 -1.11275,0.013 -1.64961,-0.11881 -1.19302,-0.29279 z m 9.79152,-0.0383 c 1.02002,-0.14553 2.68914,-0.14553 3.70916,0 1.02002,0.14553 0.18546,0.26461 -1.85458,0.26461 -2.04003,0 -2.87459,-0.11908 -1.85458,-0.26461 z m -18.03999,-0.81537 c -0.88935,-0.35993 -1.00421,-0.55776 -0.3372,-0.58079 0.55637,-0.0192 1.4668,0.24215 2.02318,0.58079 1.23276,0.75032 0.16798,0.75032 -1.68598,0 z m 13.83556,-0.62875 c 4.72445,-2.5411 11.00247,-5.08598 12.39042,-5.02262 1.03746,0.0474 0.87481,0.1991 -0.59907,0.55886 -2.72672,0.66557 -8.35617,3.08857 -10.55719,4.54398 -0.98455,0.65103 -2.19372,1.18368 -2.68705,1.18368 -0.49333,0 0.16048,-0.56875 1.45289,-1.2639 z m 19.04107,0.80897 c 1.02002,-0.14553 2.68914,-0.14553 3.70916,0 1.02002,0.14553 0.18546,0.26461 -1.85458,0.26461 -2.04004,0 -2.8746,-0.11908 -1.85458,-0.26461 z m 6.40673,-0.60087 c 0.46364,-0.1762 1.22233,-0.1762 1.68598,0 0.46364,0.17619 0.0843,0.32036 -0.84299,0.32036 -0.92729,0 -1.30664,-0.14417 -0.84299,-0.32036 z m 3.7232,-0.59825 c 0.22411,-0.21105 0.80577,-0.23361 1.29259,-0.0501 0.53799,0.20275 0.37819,0.35326 -0.40745,0.38373 -0.71091,0.0276 -1.10923,-0.12253 -0.88514,-0.33359 z m 2.69757,-0.63515 c 0.2241,-0.21105 0.80577,-0.23361 1.29259,-0.0501 0.53799,0.20275 0.37819,0.35326 -0.40745,0.38373 -0.71091,0.0276 -1.10923,-0.12253 -0.88514,-0.3336 z m -39.6346,-0.88656 c 0.74183,-0.30024 1.804,-0.54588 2.36037,-0.54588 0.63763,0 0.51297,0.2018 -0.33719,0.54588 -0.74184,0.30022 -1.804,0.54586 -2.36038,0.54586 -0.63762,0 -0.51297,-0.20179 0.3372,-0.54586 z m 43.16112,0 c 0.74183,-0.30024 1.804,-0.54588 2.36037,-0.54588 0.63763,0 0.51297,0.2018 -0.3372,0.54588 -0.74183,0.30022 -1.804,0.54586 -2.36037,0.54586 -0.63762,0 -0.51297,-0.20179 0.3372,-0.54586 z m -47.72611,-0.41662 c 0.45659,-0.17398 1.36702,-0.18458 2.02318,-0.0235 0.65616,0.16103 0.28259,0.30339 -0.83015,0.31633 -1.11275,0.013 -1.64961,-0.11881 -1.19303,-0.29281 z m 9.67913,-0.44621 c 0.15455,-0.12523 1.4949,-0.40295 2.97857,-0.61716 1.83702,-0.26523 2.37486,-0.1957 1.68598,0.21796 -0.92141,0.55327 -5.31923,0.92965 -4.66455,0.3992 z m 42.43053,-0.40748 c 0.55637,-0.33864 1.31506,-0.6157 1.68598,-0.6157 0.37092,0 0.21918,0.27706 -0.3372,0.6157 -0.55637,0.33864 -1.31506,0.61569 -1.68598,0.61569 -0.37091,0 -0.21918,-0.27705 0.3372,-0.61569 z m 3.03476,-1.06686 c 1.62334,-1.48779 9.1043,-6.19754 9.1043,-5.73177 0,0.14468 -1.74499,1.40072 -3.87775,2.79122 -4.27558,2.78755 -6.30613,3.92996 -5.22655,2.94055 z m 17.87141,-0.20344 c 0.55637,-0.33865 1.31506,-0.61571 1.68598,-0.61571 0.37091,0 0.21917,0.27706 -0.3372,0.61571 -0.55637,0.33862 -1.31506,0.61569 -1.68598,0.61569 -0.37092,0 -0.21918,-0.27707 0.3372,-0.61569 z m -54.6258,-0.97728 c 0,-0.46082 6.81793,-3.55327 7.37734,-3.34618 0.28966,0.10725 -1.25174,0.96509 -3.42534,1.90638 -2.1736,0.94129 -3.952,1.5892 -3.952,1.4398 z m 13.30421,-0.11626 c 1.19721,-0.14032 3.32154,-0.14263 4.72075,-0.005 1.39921,0.1375 0.41968,0.25229 -2.17673,0.25511 -2.59641,0.002 -3.74122,-0.10971 -2.54402,-0.24999 z m 8.76931,-0.59338 c 0.45659,-0.17398 1.36702,-0.18456 2.02318,-0.0235 0.65617,0.16104 0.28259,0.30338 -0.83016,0.31633 -1.11274,0.013 -1.6496,-0.11881 -1.19302,-0.2928 z m 37.45567,0.0329 c 0.22409,-0.21105 0.80576,-0.23361 1.29259,-0.0501 0.53798,0.20276 0.37818,0.35326 -0.40745,0.38374 -0.71092,0.0275 -1.10924,-0.12253 -0.88514,-0.33359 z m -33.04523,-0.63515 c 0.2241,-0.21105 0.80576,-0.23361 1.29258,-0.0501 0.53799,0.20276 0.37819,0.35326 -0.40744,0.38374 -0.71092,0.0275 -1.10924,-0.12255 -0.88514,-0.3336 z m 36.06595,-0.0369 c 0.46364,-0.17621 1.22233,-0.17621 1.68598,0 0.46364,0.17619 0.0843,0.32036 -0.84299,0.32036 -0.92729,0 -1.30664,-0.14417 -0.84299,-0.32036 z m -31.52785,-0.81251 c 1.2982,-0.24853 3.95362,-1.22085 5.90093,-2.16069 1.94731,-0.93984 3.54056,-1.5652 3.54056,-1.38967 0,0.76342 -8.22952,4.1415 -9.92805,4.07529 -1.6857,-0.0657 -1.63685,-0.1184 0.48656,-0.52493 z m -21.07477,-1.75574 c 0.83456,-0.15139 2.20021,-0.15139 3.03477,0 0.83456,0.1514 0.15174,0.27526 -1.51738,0.27526 -1.66913,0 -2.35195,-0.12386 -1.51739,-0.27526 z m 6.06954,-0.60755 c 0.46364,-0.1762 1.22233,-0.1762 1.68598,0 0.46364,0.1762 0.0843,0.32036 -0.84299,0.32036 -0.92729,0 -1.30664,-0.14416 -0.84299,-0.32036 z m 4.04635,-0.63516 c 0.46365,-0.17619 1.22234,-0.17619 1.68598,0 0.46365,0.17621 0.0843,0.32037 -0.84299,0.32037 -0.92729,0 -1.30663,-0.14416 -0.84299,-0.32037 z m 28.15589,-0.4601 c 1.11274,-0.47721 2.78187,-1.04296 3.70916,-1.25721 1.35407,-0.31287 1.28769,-0.21874 -0.3372,0.47811 -1.11275,0.47721 -2.78187,1.04295 -3.70916,1.25721 -1.35407,0.31287 -1.28769,0.21874 0.3372,-0.47811 z m -23.43514,-0.20265 c 0.83456,-0.15139 2.2002,-0.15139 3.03476,0 0.83456,0.1514 0.15174,0.27526 -1.51738,0.27526 -1.66912,0 -2.35194,-0.12386 -1.51738,-0.27526 z m 9.11834,0.0645 c 0.2241,-0.21106 0.80577,-0.23363 1.29259,-0.0501 0.53799,0.20276 0.37819,0.35326 -0.40745,0.38374 -0.71091,0.0275 -1.10923,-0.12253 -0.88514,-0.3336 z m 5.2125,-1.52173 c 0.55637,-0.33864 1.31506,-0.61569 1.68598,-0.61569 0.37092,0 0.21918,0.27705 -0.3372,0.61569 -0.55637,0.33864 -1.31506,0.61571 -1.68598,0.61571 -0.37091,0 -0.21918,-0.27707 0.3372,-0.61571 z m 15.51103,-0.63515 c 0.55637,-0.33864 1.31506,-0.6157 1.68598,-0.6157 0.37091,0 0.21917,0.27706 -0.3372,0.6157 -0.55637,0.33864 -1.31506,0.6157 -1.68598,0.6157 -0.37092,0 -0.21918,-0.27706 0.3372,-0.6157 z m -68.95664,-0.42065 c 0.46365,-0.17619 1.22234,-0.17619 1.68598,0 0.46365,0.1762 0.0843,0.32036 -0.84299,0.32036 -0.92729,0 -1.30663,-0.14416 -0.84299,-0.32036 z m 59.51514,-1.48481 c 2.04004,-1.01504 4.01264,-1.84553 4.38355,-1.84553 0.37092,0 -0.99473,0.83049 -3.03476,1.84553 -2.04004,1.01504 -4.01264,1.84553 -4.38356,1.84553 -0.37091,0 0.99473,-0.83049 3.03477,-1.84553 z m 1.18019,1.48481 c 0.46364,-0.17619 1.22233,-0.17619 1.68598,0 0.46364,0.1762 0.0843,0.32036 -0.84299,0.32036 -0.92729,0 -1.30664,-0.14416 -0.84299,-0.32036 z m -56.81757,-0.84966 c 1.85396,-0.75032 2.91875,-0.75032 1.68598,0 -0.55637,0.33864 -1.4668,0.59999 -2.02318,0.58079 -0.66701,-0.023 -0.55215,-0.22086 0.3372,-0.58079 z m 60.35813,0.18029 c 0.55637,-0.19502 1.84615,-0.75143 2.86617,-1.23648 1.02001,-0.48503 1.85458,-0.73898 1.85458,-0.56431 0,0.49856 -3.88098,2.26129 -4.85586,2.20551 -0.58876,-0.0336 -0.54442,-0.16654 0.13511,-0.40472 z m 8.3902,-0.46282 c 0.72,-0.54327 1.78217,-0.96521 2.36038,-0.93763 0.90813,0.0433 0.91354,0.0982 0.0397,0.40341 -0.55638,0.19429 -1.61854,0.61622 -2.36038,0.93762 -1.3272,0.57502 -1.32783,0.56855 -0.0397,-0.4034 z m -65.03917,-0.98777 c 0.55637,-0.33864 1.31506,-0.61571 1.68598,-0.61571 0.37092,0 0.21918,0.27707 -0.3372,0.61571 -0.55637,0.33864 -1.31506,0.6157 -1.68598,0.6157 -0.37091,0 -0.21917,-0.27706 0.3372,-0.6157 z m 2.69757,-0.88478 c 0,-0.13729 0.47098,-0.41984 1.04661,-0.62788 0.60016,-0.2169 0.87086,-0.11041 0.6346,0.24962 -0.39605,0.60353 -1.68121,0.89268 -1.68121,0.37826 z m 59.68373,-0.15851 c 0.37092,-0.30999 1.58266,-1.27389 2.69275,-2.142 1.94726,-1.52277 1.97128,-1.52595 0.68193,-0.0904 -0.73502,0.81836 -1.94676,1.78226 -2.69274,2.142 -0.74598,0.35973 -1.05285,0.40043 -0.68194,0.0904 z m -4.38355,-0.86217 c 0.55638,-0.33864 1.31507,-0.61571 1.68598,-0.61571 0.37092,0 0.21918,0.27707 -0.33719,0.61571 -0.55638,0.33864 -1.31507,0.6157 -1.68598,0.6157 -0.37092,0 -0.21918,-0.27706 0.33719,-0.6157 z m 2.69757,-0.81094 c 0,-0.12127 0.9863,-0.9005 2.19178,-1.73164 1.35627,-0.93511 1.8273,-1.08848 1.23565,-0.40234 -0.89809,1.04151 -3.42743,2.61632 -3.42743,2.13398 z m -64.40448,-1.09452 c 0.74183,-0.30023 1.804,-0.54588 2.36037,-0.54588 0.63763,0 0.51297,0.2018 -0.33719,0.54588 -0.74183,0.30022 -1.804,0.54586 -2.36038,0.54586 -0.63762,0 -0.51296,-0.20179 0.3372,-0.54586 z m 12.65891,0.25141 c 0.22409,-0.21105 0.80576,-0.23361 1.29259,-0.0501 0.53798,0.20274 0.37818,0.35325 -0.40745,0.38373 -0.71092,0.0276 -1.10924,-0.12254 -0.88514,-0.3336 z m 2.69757,-0.63515 c 0.22409,-0.21105 0.80576,-0.23362 1.29259,-0.0501 0.53798,0.20275 0.37818,0.35326 -0.40745,0.38373 -0.71092,0.0276 -1.10924,-0.12253 -0.88514,-0.33359 z m 2.69757,-0.63516 c 0.22409,-0.21105 0.80576,-0.23361 1.29259,-0.0501 0.53798,0.20276 0.37818,0.35326 -0.40745,0.38374 -0.71092,0.0276 -1.10924,-0.12253 -0.88514,-0.33359 z m -7.26377,-2.14028 c 1.288,-0.53711 5.58754,-0.90035 5.00174,-0.42255 -0.15454,0.12605 -1.64664,0.39925 -3.31576,0.60711 -2.02641,0.25235 -2.58661,0.19103 -1.68598,-0.18456 z m 14.31801,0.20195 c 0.45658,-0.17398 1.36701,-0.18458 2.02317,-0.0235 0.65617,0.16104 0.2826,0.30339 -0.83015,0.31634 -1.11275,0.013 -1.64961,-0.11882 -1.19302,-0.2928 z m 4.39638,-0.65636 c 0.6491,-0.15977 1.71127,-0.15977 2.36038,0 0.6491,0.15975 0.11801,0.29046 -1.18019,0.29046 -1.29821,0 -1.82929,-0.13071 -1.18019,-0.29046 z m -10.79028,-0.65226 c 1.02002,-0.14553 2.68914,-0.14553 3.70916,0 1.02002,0.14553 0.18546,0.26459 -1.85458,0.26459 -2.04004,0 -2.8746,-0.11906 -1.85458,-0.26459 z m 11.29608,-0.18022 -5.05795,-0.40631 4.72075,-0.0588 c 2.59641,-0.0323 6.23813,0.16381 8.09271,0.43586 l 3.37196,0.49465 -3.03476,-0.0296 c -1.66913,-0.0163 -5.31084,-0.2124 -8.09271,-0.43586 z m 13.30641,-0.41662 c 0.45659,-0.174 1.36702,-0.18458 2.02318,-0.0235 0.65617,0.16104 0.28259,0.30339 -0.83016,0.31634 -1.11274,0.013 -1.6496,-0.11882 -1.19302,-0.2928 z m -3.87212,-1.46343 c 2.03607,-0.66189 3.79365,-1.11706 3.90573,-1.01151 0.34855,0.32828 -5.20986,2.25755 -6.44115,2.23567 -0.6416,-0.0117 0.49934,-0.56228 2.53542,-1.22416 z m 4.78415,-1.53947 c 0.68627,-0.59528 11.40847,-5.45357 11.40847,-5.16924 0,0.35368 -10.4915,5.41299 -11.2249,5.41299 -0.25551,0 -0.33812,-0.10971 -0.18357,-0.24375 z m 29.05767,67.46251 c 3.30343,-0.93215 6.96675,-4.67275 7.57711,-7.73699 0.63303,-3.17801 -1.47335,-7.58024 -4.44286,-9.28534 -2.96422,-1.70208 -8.2207,-1.72182 -11.14615,-0.0419 -2.53638,1.45652 -4.91655,5.4829 -4.91655,8.31703 0,4.10178 2.90872,7.61229 7.36003,8.88278 2.44895,0.69896 2.62602,0.69465 5.56842,-0.13561 z M 171.7316,836.52566 c -4.3093,-1.66114 -5.50465,-7.2203 -2.13885,-9.947 1.37711,-1.11561 2.68309,-1.52046 4.90468,-1.52046 3.93201,0 6.33846,2.05459 6.33846,5.41168 0,3.11036 -1.02561,4.68842 -3.74178,5.75727 -2.55357,1.00487 -3.40687,1.05236 -5.36251,0.29851 z m 5.03134,-1.92676 c 1.73543,-0.87473 2.82514,-4.12666 2.03703,-6.07894 -1.79609,-4.44921 -9.42875,-3.07815 -9.42875,1.69369 0,3.54388 4.16212,6.0131 7.39172,4.38525 z m -1.99142,-49.23262 c -2.99058,-2.99811 -1.7508,-6.71255 2.58252,-7.73733 4.20409,-0.99422 7.5907,5.9667 4.04188,8.30776 -2.23472,1.47417 -4.80576,1.25279 -6.6244,-0.57043 z m 6.06437,-0.32274 c 3.61848,-3.40795 -0.79957,-8.03276 -5.43947,-5.69404 -1.7575,0.88586 -1.676,3.65179 0.16189,5.49431 1.80104,1.80557 3.5041,1.87002 5.27758,0.19973 z"
       id="path3065"
       inkscape:connector-curvature="0" />
    <path
       style="fill:#000000"
       d="m -91.155896,799.76339 c -0.494074,-0.56343 -0.897957,-1.12558 -0.897518,-1.24922 4.53e-4,-0.12364 -1.428474,-0.17608 -3.175363,-0.11654 -1.74689,0.0595 -3.301931,-0.0156 -3.455648,-0.16695 -0.296677,-0.29212 0.446331,-1.28136 1.585964,-2.11155 0.396591,-0.28891 0.261241,-0.006 -0.319871,0.66777 l -1.007369,1.16859 0.966081,0.10954 c 0.531345,0.0602 1.356187,0.0156 1.832983,-0.0992 0.807198,-0.19441 0.828266,-0.24975 0.305912,-0.80361 -0.68908,-0.73063 -0.706749,-1.99884 -0.03963,-2.8445 0.447096,-0.56676 0.404098,-0.74109 -0.41175,-1.66943 -2.503639,-2.84883 -2.401661,-5.99302 0.313029,-9.65129 0.430093,-0.57959 1.290288,-1.95847 1.911545,-3.06418 0.621256,-1.10572 1.133113,-1.87873 1.137459,-1.71781 0.01137,0.42089 -2.058269,4.28702 -2.618646,4.89169 -0.259895,0.28044 -0.887524,1.37968 -1.394731,2.44277 -0.738304,1.54746 -0.877429,2.21933 -0.697701,3.36938 0.395322,2.5296 2.87165,4.66671 6.80671,5.8743 0.852665,0.26167 0.854054,0.26752 0.07018,0.29565 -0.439839,0.0158 -1.446181,-0.27101 -2.236315,-0.63733 -1.305795,-0.60538 -1.491208,-0.61861 -2.036231,-0.14532 -0.926659,0.80471 -1.017625,1.72214 -0.262135,2.64375 0.846179,1.03224 1.933812,1.06909 3.851161,0.13049 1.406277,-0.68842 1.478748,-0.69161 2.595799,-0.11437 0.632024,0.32661 1.149133,0.72042 1.149133,0.87514 0,0.64076 2.209782,0.24212 3.231687,-0.58299 0.79576,-0.64251 1.318975,-0.8166 2.039007,-0.67841 1.232692,0.23657 2.036357,-0.76002 2.036357,-2.5252 0,-0.85785 0.240523,-1.46326 0.769045,-1.93574 l 0.769045,-0.68751 -3.291717,-3.23512 c -3.319028,-3.26196 -3.16823,-3.36355 0.361808,-0.24375 6.426755,5.67988 11.993491,7.97444 19.311491,7.96004 3.59247,-0.007 8.192658,-0.64336 10.355163,-1.43229 l 0.953368,-0.34782 0,-3.50636 c 0,-3.29044 -0.04928,-3.53734 -0.800355,-4.00956 -0.440194,-0.27676 -1.167211,-0.99391 -1.615593,-1.59365 -0.770379,-1.03044 -0.73591,-1.01782 0.626378,0.22939 1.212087,1.10969 1.446379,1.21601 1.471522,0.66777 0.02105,-0.45891 0.138507,-0.35535 0.396519,0.34959 0.201636,0.55091 0.383902,3.22838 0.405036,5.94993 0.03438,4.42852 0.105424,4.98426 0.676271,5.29081 0.500064,0.26855 0.824535,0.17425 1.502069,-0.43652 l 0.864219,-0.77906 0.58566,0.70691 c 0.400155,0.483 1.154966,0.77493 2.382979,0.92163 1.71288,0.20463 1.832507,0.1673 2.546368,-0.79469 0.938041,-1.26409 1.418138,-1.26483 2.914038,-0.005 1.414488,1.19172 1.914972,1.0819 3.204068,-0.70305 0.818282,-1.13303 0.896179,-1.43462 0.555733,-2.1516 -0.387434,-0.81594 -0.42312,-0.82297 -1.660757,-0.32676 -0.695649,0.27891 -1.597996,0.49817 -2.005218,0.48726 -0.407226,-0.0109 0.193452,-0.34898 1.334834,-0.75124 2.868178,-1.01086 3.780011,-2.2995 3.588844,-5.0719 -0.145455,-2.10952 -0.706348,-3.47129 -3.059876,-7.42894 -0.791733,-1.33137 -1.370684,-2.42067 -1.286563,-2.42067 0.453253,0 4.111295,6.46886 4.617298,8.1652 l 0.593096,1.98832 0.854486,-0.98667 c 1.658026,-1.91451 2.878888,-4.84233 2.917483,-6.99659 0.02982,-1.66505 0.08045,-1.82367 0.29976,-0.93941 0.329993,1.33052 -0.09657,4.02698 -0.869776,5.49816 -0.322965,0.61451 -1.173429,1.7947 -1.889917,2.62266 -0.716487,0.82795 -1.421395,1.87968 -1.566461,2.33719 -0.145066,0.45751 -0.563843,1.30773 -0.930619,1.88939 -0.631854,1.00205 -0.6392,1.1849 -0.139885,3.48278 0.520238,2.39419 1.08523,3.24843 1.735679,2.62428 0.439234,-0.42147 2.181931,-0.41161 2.45599,0.0139 0.321263,0.49879 1.420922,0.40287 1.913752,-0.16694 0.238241,-0.27546 0.70798,-0.50083 1.043864,-0.50083 0.335884,0 0.805623,0.22537 1.043864,0.50083 0.618758,0.71541 1.55723,0.61946 2.634008,-0.26929 0.908614,-0.74996 0.918412,-0.79725 0.374309,-1.80689 -0.3073,-0.57022 -0.947996,-1.33058 -1.423769,-1.68969 -0.475772,-0.35911 -0.772713,-0.74152 -0.659875,-0.8498 0.112842,-0.10827 0.105935,-0.44499 -0.01534,-0.74826 -0.203265,-0.50829 -0.287292,-0.50941 -1.074606,-0.0144 -1.475022,0.92738 -1.745474,0.58341 -0.321872,-0.40937 2.317608,-1.61625 4.614287,-4.08512 5.22302,-5.61461 0.427247,-1.07349 0.528714,-2.02122 0.380009,-3.54931 -0.261728,-2.68942 -0.502419,-3.24356 -1.412592,-3.25216 -0.500986,-0.005 -1.256764,-0.66211 -2.303204,-2.00331 -0.85664,-1.09792 -1.617367,-1.99624 -1.690503,-1.99624 -0.128514,0 0.1193,1.17946 0.515954,2.45569 0.173762,0.55908 0.04522,0.59711 -1.321355,0.39088 -5.444511,-0.8216 -13.124507,-5.21274 -13.194783,-7.54429 -0.01343,-0.44626 -0.152783,-1.11188 -0.309631,-1.47915 -0.266158,-0.62323 -0.310365,-0.60653 -0.662844,0.25041 -0.461694,1.12248 -0.898774,1.13892 -3.291029,0.12373 -1.930043,-0.81905 -2.308395,-1.35687 -2.31843,-3.29563 -0.0057,-1.11116 -0.09416,-1.1214 -1.440814,-0.16694 l -1.05993,0.75124 -0.665756,-0.78823 c -0.366163,-0.43353 -0.659482,-0.9594 -0.65182,-1.1686 0.0077,-0.2092 0.247532,0.0328 0.533042,0.53782 0.638504,1.12935 0.855367,1.13893 1.888709,0.0835 1.029244,-1.05128 1.739774,-1.06833 1.739774,-0.0417 0,2.30579 0.388482,2.93451 2.344064,3.7936 1.050723,0.46158 2.020789,0.70298 2.181823,0.54293 0.159471,-0.1585 0.592361,-1.15512 0.961976,-2.21471 l 0.67203,-1.92654 0.224323,2.42737 c 0.123378,1.33505 0.318702,2.7553 0.434056,3.15611 0.237072,0.82375 2.770534,2.57385 3.284606,2.26899 0.18467,-0.10952 0.335766,0.0208 0.335766,0.28968 0,0.45293 2.113686,1.82567 3.599422,2.33766 0.588865,0.20292 0.622665,0.0764 0.409773,-1.53336 -0.127616,-0.96499 -0.306472,-2.05502 -0.397452,-2.4223 -0.156353,-0.63115 -0.143458,-0.63396 0.235179,-0.0513 0.220329,0.33904 0.483073,1.48916 0.583869,2.55581 l 0.183267,1.93938 1.978245,0.53262 c 3.1535,0.84905 3.193112,0.83144 2.931585,-1.30374 -0.123711,-1.01004 -0.08593,-1.83339 0.08395,-1.82974 0.169879,0.004 0.750522,0.71732 1.290318,1.58595 1.656637,2.66584 2.226218,3.17258 3.727967,3.31669 0.758889,0.0728 1.379393,0.0122 1.378903,-0.13471 -3.48e-4,-0.14691 -0.555385,-1.1495 -1.233093,-2.22796 -0.677708,-1.07847 -1.186188,-2.00408 -1.129959,-2.05691 0.05623,-0.0528 0.963428,0.64148 2.015991,1.54291 1.052563,0.90142 2.012925,1.63922 2.134136,1.63954 0.308764,6.7e-4 0.641183,-1.31234 0.633754,-2.50354 -0.005,-0.80819 -0.289756,-1.17702 -1.474058,-1.90955 -0.807294,-0.49935 -2.50714,-1.62621 -3.777429,-2.50414 -1.270292,-0.87793 -2.581619,-1.751 -2.914062,-1.94015 -0.469381,-0.26707 -0.149628,-0.36218 1.430967,-0.42564 1.119479,-0.0449 2.168242,-0.20919 2.330588,-0.36497 0.421018,-0.40399 -2.421146,-2.5409 -4.651394,-3.49718 -1.039191,-0.44559 -2.664185,-0.91408 -3.611096,-1.04109 -1.511564,-0.20275 -1.668422,-0.16938 -1.285411,0.27346 0.683853,0.79067 -0.455751,0.51046 -1.421872,-0.34962 -1.224616,-1.0902 -6.962359,-3.73741 -11.576981,-5.34125 -3.915723,-1.36093 -4.056412,-1.43988 -2.261706,-1.26915 l 1.913751,0.18205 -1.739774,-0.94854 c -0.956876,-0.52169 -1.836571,-0.90282 -1.954876,-0.84695 -0.118308,0.0559 -0.324569,0.8934 -0.458361,1.86119 -0.264484,1.91316 -1.767356,5.82041 -2.514506,6.53735 -0.256056,0.2457 -0.465556,0.57456 -0.465556,0.73079 0,0.26852 2.544534,4.2135 3.957798,6.13607 1.576078,2.14406 0.854813,5.82975 -1.315844,6.72401 -0.591885,0.24385 -2.485375,0.69011 -4.207751,0.99171 -1.823262,0.31926 -4.36724,1.08053 -6.089209,1.82217 -4.007677,1.72606 -8.421271,3.40339 -8.572808,3.25798 -0.06822,-0.0655 0.61926,-0.43513 1.527736,-0.82149 7.738525,-3.29105 10.02875,-4.11163 13.213813,-4.73446 1.939215,-0.3792 3.762157,-0.77648 4.050977,-0.88283 0.719497,-0.26493 1.529529,-1.51681 1.616128,-2.49768 0.178696,-2.02397 -0.131697,-2.79344 -2.494533,-6.18411 -2.059879,-2.95592 -2.418429,-3.66437 -2.079075,-4.10794 1.163147,-1.52035 2.622984,-5.00768 2.760012,-6.59326 0.145466,-1.6832 0.112309,-1.76576 -0.797157,-1.98479 -1.18113,-0.28446 -6.74096,0.0979 -8.117062,0.55819 -0.767338,0.25668 -1.312239,0.22047 -2.195216,-0.14587 l -1.174521,-0.4873 1.363162,0.18813 c 1.19291,0.16463 1.334145,0.11558 1.130853,-0.39277 -0.127769,-0.3195 -0.232309,-0.78326 -0.232309,-1.03058 0,-0.78317 -1.025882,-1.47535 -3.004753,-2.02736 -1.05502,-0.2943 -1.857745,-0.59312 -1.783832,-0.66405 0.225917,-0.21678 4.250908,0.95893 4.50027,1.31454 0.15342,0.21879 0.704779,0.1977 1.606166,-0.0614 1.814971,-0.52179 2.509652,-0.49784 2.509652,0.0865 0,0.73691 0.490735,0.87072 1.651446,0.45032 0.876908,-0.31761 1.153974,-0.29047 1.622297,0.15891 0.521066,0.5 0.644068,0.49827 1.589308,-0.0223 0.976709,-0.53789 1.047396,-0.53422 1.514484,0.0787 0.480438,0.63047 0.497603,0.62925 0.883711,-0.063 0.468396,-0.83981 0.519994,-2.08543 0.08639,-2.08543 -0.169054,0 -0.393384,-0.31561 -0.498512,-0.70137 -0.125733,-0.46135 -0.347989,-0.61597 -0.649503,-0.45184 -0.345167,0.1879 -0.340209,0.13435 0.02008,-0.21682 0.278872,-0.27182 0.535224,-0.32707 0.614579,-0.13245 0.07488,0.18363 0.290173,0.55925 0.478438,0.83471 0.519183,0.75963 1.026282,-0.16952 1.032879,-1.89253 0.007,-1.81856 -0.269637,-2.44797 -1.075768,-2.44797 -0.362273,0 -0.658682,-0.15025 -0.658682,-0.33389 0,-0.18364 -0.231261,-0.33388 -0.513912,-0.33388 -0.28265,0 -0.783288,-0.41319 -1.11253,-0.91819 -0.329238,-0.505 -0.64961,-0.98424 -0.711932,-1.06498 -0.06232,-0.0807 -0.369299,0.20389 -0.682166,0.63251 -0.543571,0.74467 -0.589599,0.75207 -1.035861,0.16645 -0.256857,-0.33707 -0.467011,-0.88463 -0.467011,-1.2168 0,-0.33218 -0.103753,-0.60396 -0.230566,-0.60396 -0.126808,0 -1.41859,0.92973 -2.870627,2.06607 -1.452032,1.13633 -2.679913,2.08858 -2.728619,2.11611 -0.04871,0.0275 0.08404,0.52515 0.295006,1.10584 0.453229,1.24756 0.92278,1.31448 2.241132,0.31939 0.930796,-0.70256 0.992917,-0.70841 1.351755,-0.12735 0.206866,0.33497 0.636834,0.92929 0.955484,1.3207 l 0.579362,0.71165 0.898075,-0.8082 c 1.009153,-0.90817 0.947398,-0.92881 1.749973,0.58485 0.391084,0.73759 0.76366,1.04813 1.106186,0.92201 0.29111,-0.10719 0.423722,-0.0462 0.303901,0.13988 -0.428952,0.66599 -1.151223,0.29945 -1.734653,-0.88032 l -0.598565,-1.21038 -0.894122,0.92528 -0.894122,0.92528 -0.771882,-0.86109 c -0.424533,-0.47359 -0.837796,-1.05082 -0.918357,-1.28273 -0.10653,-0.30667 -0.488567,-0.21878 -1.40096,0.32231 l -1.254485,0.74396 -0.549574,-0.7529 c -0.302265,-0.41409 -0.549574,-0.94484 -0.549574,-1.17943 0,-0.2346 -0.173553,-0.42654 -0.385676,-0.42654 -0.234762,0 -0.302568,0.31773 -0.173289,0.812 0.168511,0.64425 0.0505,0.86139 -0.571199,1.05106 -0.758472,0.23139 -0.761283,0.24742 -0.08768,0.50007 0.619875,0.2325 0.600866,0.25926 -0.173977,0.24498 -0.478438,-0.009 -1.339626,-0.11809 -1.913751,-0.24282 -1.010325,-0.21949 -0.995429,-0.23341 0.463681,-0.43325 0.829148,-0.11356 1.606507,-0.30143 1.727467,-0.4175 0.401727,-0.38548 -0.530764,-1.34802 -1.279855,-1.32109 -0.405524,0.0146 -0.737316,-0.11776 -0.737316,-0.2941 0,-0.17653 0.51832,-0.2399 1.153383,-0.14101 0.978679,0.1524 1.360799,-0.006 2.522672,-1.04483 3.839344,-3.43317 7.201336,-6.05898 7.757715,-6.05898 0.897278,0 1.954675,1.21094 3.062128,3.50678 1.250052,2.59145 1.497065,6.01162 0.644704,8.92658 l -0.595813,2.0376 0.817554,0.59514 c 1.263852,0.92003 3.335015,1.73354 3.89167,1.52857 0.276032,-0.10164 0.705502,-0.94718 0.95438,-1.87898 0.248875,-0.9318 0.542726,-1.69418 0.653004,-1.69418 0.110277,0 0.478563,0.75124 0.818414,1.66943 0.754905,2.03954 1.450247,2.15216 3.85417,0.62425 1.171591,-0.74465 1.627885,-1.24866 1.586938,-1.75289 -0.03163,-0.38925 -0.04014,-0.98794 -0.01896,-1.33043 0.03697,-0.59765 0.07583,-0.59923 0.966403,-0.0393 0.884505,0.55611 0.949023,0.55566 1.379832,-0.01 0.380983,-0.49995 0.346094,-0.72969 -0.222207,-1.46317 -1.651655,-2.13173 -2.070035,-2.5397 -2.077774,-2.02609 -0.0042,0.28239 -0.466809,1.03364 -1.0279,1.66943 l -1.020155,1.15598 -1.15331,-1.09035 c -1.102971,-1.04276 -1.130582,-1.12902 -0.632624,-1.97654 0.286378,-0.4874 0.735981,-0.95458 0.999121,-1.03816 0.263141,-0.0836 0.145706,0.1673 -0.260966,0.55752 -0.940455,0.90243 -0.928458,1.09045 0.130483,2.04505 l 0.869887,0.78417 0.869887,-0.78417 c 1.053482,-0.94968 1.058051,-1.12224 0.07719,-2.91736 -0.943925,-1.72752 -7.38954,-8.67224 -8.30883,-8.95222 -0.402048,-0.12244 -1.279092,0.14498 -2.230936,0.68024 -1.962921,1.10384 -2.867444,0.98815 -3.883176,-0.49663 -1.729391,-2.528 -1.816776,-2.56858 -4.847918,-2.25119 -5.703828,0.59725 -11.382823,1.59652 -12.309556,2.16597 -0.52455,0.32233 -2.106214,1.35163 -3.514808,2.28734 -1.408594,0.93571 -2.913385,1.88005 -3.343979,2.09853 -1.353522,0.68676 -0.85147,0.14274 0.782276,-0.84767 0.860846,-0.52187 1.565454,-1.12653 1.565797,-1.3437 8e-4,-0.50152 -1.199327,-0.87718 -2.011821,-0.62973 -0.834216,0.25406 -1.925378,2.08621 -1.710989,2.87288 0.118238,0.43386 -0.05401,0.70157 -0.548242,0.85209 -0.997358,0.30375 -1.643558,-0.64841 -1.643558,-2.42174 0,-1.26601 0.125584,-1.49241 1.094535,-1.97321 0.843786,-0.4187 0.983284,-0.61072 0.608921,-0.83818 -0.487712,-0.29633 -0.395802,-0.34556 0.819217,-0.43883 0.239219,-0.0184 0.513233,-0.12582 0.608921,-0.2388 0.09569,-0.11298 0.565426,-0.30857 1.043864,-0.43465 0.84903,-0.22373 0.853202,-0.21629 0.173977,0.31041 -0.38275,0.29681 -1.439503,0.94314 -2.348341,1.4363 -1.450951,0.78733 -1.652474,1.03165 -1.652785,2.00374 -3.86e-4,1.20726 0.524012,2.39871 1.055753,2.39871 0.184642,0 0.336298,-0.33806 0.337013,-0.75124 0.002,-1.13862 1.258244,-2.87691 2.252147,-3.11628 0.553037,-0.13319 1.198354,-0.0146 1.726202,0.3173 0.809316,0.50884 0.916921,0.47664 2.694114,-0.80635 2.043762,-1.47543 3.033857,-1.7983 8.044275,-2.62325 l 3.409512,-0.56137 -1.669738,-1.66618 c -2.706775,-2.701 -2.886038,-2.72355 -9.329046,-1.17334 -3.044186,0.73243 -6.402391,1.7564 -7.462679,2.27547 -1.697247,0.8309 -1.941284,1.07831 -2.040595,2.06883 -0.06766,0.67478 0.07161,1.23724 0.347955,1.40537 0.350233,0.21307 0.314692,0.28154 -0.148165,0.28542 -0.473554,0.004 -0.607736,-0.27322 -0.603593,-1.24695 0.0029,-0.68864 0.121936,-1.42797 0.264456,-1.64296 0.549729,-0.82926 4.268467,-2.29096 8.603063,-3.38154 7.421347,-1.86722 8.092552,-1.81726 10.595753,0.78858 1.954389,2.03453 2.515501,2.25622 5.051089,1.99566 2.366152,-0.24315 2.110781,-0.39113 4.792096,2.7769 0.752498,0.88909 1.5297,0.90198 2.874034,0.0477 1.134106,-0.72072 2.945065,-0.88015 3.537733,-0.31144 0.263154,0.25251 0.433781,0.20019 0.585656,-0.17959 0.126642,-0.31667 0.0031,-0.61364 -0.301753,-0.72593 -0.340467,-0.12537 -0.498327,-0.60391 -0.463932,-1.40637 0.04317,-1.00719 0.07705,-1.0586 0.197009,-0.29898 0.184172,1.16622 1.207232,1.43814 3.576391,0.9506 2.94289,-0.60562 3.753047,-0.48673 4.90382,0.71964 1.106911,1.16039 4.492928,7.21197 4.492928,8.02988 0,0.61019 4.298175,4.50863 5.42361,4.91922 0.953508,0.34786 0.853585,0.87263 -0.493643,2.59253 -1.285091,1.64058 -1.981018,1.89554 -2.863261,1.04897 -0.403082,-0.38678 -0.629798,-0.80216 -0.503807,-0.92305 0.125987,-0.1209 0.381685,0.0419 0.568217,0.36171 0.54116,0.92789 1.266907,0.68372 2.390115,-0.80412 1.256353,-1.66422 1.275515,-1.82556 0.246262,-2.07344 -0.439881,-0.10594 -2.357982,-1.70356 -4.262447,-3.55026 -3.835345,-3.71903 -6.054632,-5.26178 -8.466189,-5.88532 -1.360653,-0.35182 -1.447255,-0.41863 -0.563749,-0.43495 1.495419,-0.0276 4.400177,1.367 6.243903,2.99776 0.871793,0.7711 1.58508,1.25867 1.58508,1.08348 0,-0.45678 -2.822056,-5.40901 -3.813063,-6.69128 -1.104864,-1.4296 -1.620509,-1.54358 -4.721134,-1.04365 -2.312434,0.37284 -2.647035,0.5182 -2.833452,1.23091 -0.161799,0.61859 0.04403,1.05323 0.87748,1.85298 2.268613,2.17688 9.794259,11.19186 9.794259,11.73256 0,0.23289 -0.298225,0.77684 -0.662718,1.20877 -0.653115,0.77395 -0.673286,0.77615 -1.391819,0.15218 -0.726798,-0.63114 -0.729101,-0.6295 -0.729101,0.52043 0,0.63446 -0.17332,1.31987 -0.385151,1.52314 -0.620748,0.59565 1.110731,1.45164 3.010331,1.48823 1.251179,0.0241 1.790805,-0.12457 2.162003,-0.59565 0.481145,-0.61062 0.491375,-0.60989 0.374312,0.0267 -0.13462,0.73208 -2.007055,1.28902 -3.356212,0.99827 -0.560903,-0.12088 -1.005018,0.0575 -1.467231,0.58942 -0.36457,0.41953 -0.668063,0.85406 -0.67443,0.96563 -0.0064,0.11157 0.928489,0.29713 2.07746,0.41237 2.070335,0.20764 5.047648,1.38815 5.854875,2.32147 0.340078,0.3932 0.256196,0.58712 -0.444557,1.0277 -1.103563,0.69385 -1.645791,0.71429 -0.617682,0.0233 0.425333,-0.28586 0.773333,-0.63018 0.773333,-0.76515 0,-0.13497 -0.846947,-0.64399 -1.882102,-1.13114 -1.420083,-0.66832 -2.487783,-0.90272 -4.349435,-0.95488 -1.357034,-0.038 -2.467333,-0.17332 -2.467333,-0.30066 0,-0.12734 0.313159,-0.50347 0.695909,-0.83585 0.382751,-0.33238 0.69591,-0.7486 0.69591,-0.92493 0,-0.36076 -3.186675,-0.0721 -5.393299,0.48859 -1.362762,0.34625 -1.37366,0.36077 -0.521933,0.69554 2.108826,0.82887 5.653949,2.61709 7.310287,3.68743 1.555706,1.00531 1.94886,1.12354 2.882057,0.86673 0.594335,-0.16357 1.166905,-0.18413 1.272374,-0.0457 0.105472,0.13843 0.955125,0.44146 1.888117,0.6734 2.64756,0.6582 6.828543,3.64456 6.828543,4.87744 0,0.10938 -0.704608,0.19887 -1.565796,0.19887 -0.861188,0 -1.562049,0.11269 -1.55747,0.25042 0.0086,0.25789 4.713876,3.58886 6.146423,4.35117 0.685728,0.36489 0.804346,0.69323 0.804346,2.22641 0,1.91766 -0.236668,2.85467 -0.721028,2.85467 -0.164242,0 -0.8521,-0.46631 -1.528569,-1.03625 -1.402011,-1.1812 -1.513329,-1.09645 -0.552076,0.42029 0.752564,1.18745 0.659371,1.61761 -0.350456,1.61761 -0.371456,0 -0.675374,0.0385 -0.675374,0.0857 0,0.0471 0.159896,0.61055 0.355325,1.25206 0.195425,0.64152 0.365704,2.11576 0.378397,3.27608 0.02672,2.44191 -0.833581,4.04809 -3.276241,6.11679 -1.23984,1.05003 -1.371857,1.28732 -0.972861,1.74865 0.253903,0.29356 0.368474,0.76672 0.254602,1.05147 -0.118005,0.29508 0.01186,0.59831 0.301987,0.70515 0.279964,0.10308 0.849371,0.73595 1.265348,1.40637 0.415976,0.67041 0.986813,1.39953 1.268525,1.62025 0.996128,0.78048 0.213233,1.34326 -2.215867,1.59288 -1.768306,0.18171 -2.494276,0.41456 -2.940288,0.94309 -0.576714,0.68342 -0.617198,0.68612 -1.544261,0.10325 -0.688735,-0.43303 -1.057205,-0.49763 -1.332368,-0.2336 -0.548384,0.52621 -1.47528,0.4488 -2.008534,-0.16776 -0.335731,-0.38817 -0.805707,-0.4798 -1.732018,-0.33766 -0.971897,0.14913 -1.408086,0.05 -1.852299,-0.42102 -0.812228,-0.86121 -2.19967,-0.53719 -2.847551,0.66502 -0.284627,0.52815 -0.690151,0.96028 -0.901158,0.96028 -0.21101,0 -1.18561,-0.43196 -2.165782,-0.95992 -2.44243,-1.31557 -4.43784,-1.58303 -5.265245,-0.70572 -0.828306,0.87826 -2.265488,0.87608 -2.505274,-0.004 -0.100093,-0.36727 -0.374323,-0.66777 -0.609405,-0.66777 -0.764105,-10e-6 -1.579144,-1.19522 -1.579144,-2.31574 0,-0.91446 -0.100194,-1.05369 -0.608921,-0.8462 -0.334906,0.1366 -1.569342,0.46504 -2.743192,0.72987 -1.952708,0.44056 -2.185073,0.58963 -2.731462,1.75231 -0.637151,1.35581 -1.407405,1.83553 -3.541178,2.20548 -0.734703,0.12738 -1.578013,0.35101 -1.874029,0.49696 -0.759203,0.37434 -3.691999,0.67134 -4.325569,0.43805 -0.291238,-0.10724 -0.529524,-0.38016 -0.529524,-0.6065 0,-0.72915 -1.545452,-1.15887 -3.001761,-0.83466 -2.280335,0.50767 -3.021612,0.41495 -2.812651,-0.35181 0.115487,-0.42376 0.01067,-0.66777 -0.286837,-0.66777 -0.721674,0 -1.022716,-0.72551 -0.471277,-1.13577 0.271087,-0.20169 0.757427,-0.76388 1.080753,-1.24932 l 0.587866,-0.88261 -2.801384,-1.5205 c -3.326712,-1.80563 -3.924179,-1.69321 -4.269307,0.80329 -0.119722,0.86601 -0.535599,1.9624 -0.924171,2.43641 -0.388572,0.47402 -0.680062,1.05391 -0.647755,1.28865 0.284289,2.06562 -0.63712,2.51261 -2.345711,1.13793 -0.789053,-0.63485 -1.153991,-0.7305 -1.845281,-0.48362 -0.473939,0.16926 -1.193339,0.22788 -1.598665,0.13026 -0.50314,-0.12117 -1.00252,0.095 -1.573975,0.68121 -1.468502,1.50654 -1.89989,1.57133 -2.896318,0.43503 z m 28.426621,-0.0345 c 0.340265,-0.16741 0.530499,-0.44127 0.422737,-0.60858 -0.279881,-0.43454 -2.451936,-0.77373 -3.436422,-0.53664 -0.849372,0.20456 -1.414392,1.02997 -1.070521,1.56387 0.217962,0.33841 3.157968,0.037 4.084206,-0.41865 z m -26.03142,-0.59269 c 0.82666,-0.82795 0.91558,-1.07335 0.544426,-1.50248 -0.243983,-0.2821 -0.730226,-0.5129 -1.080538,-0.5129 -0.775367,0 -2.409451,0.68513 -2.409451,1.01022 0,0.34991 1.401738,1.99474 1.699929,1.99474 0.141681,0 0.702216,-0.44531 1.245634,-0.98958 z m 50.368509,-0.30497 c 0.06625,-0.53243 -0.215307,-1.00643 -0.888245,-1.49538 l -0.985234,-0.71586 -0.869428,0.96793 -0.869427,0.96792 1.506707,0.74347 c 1.629214,0.80392 1.956417,0.73118 2.105627,-0.46808 z m 11.757323,0.61988 c 0.655752,-1.17574 -0.06379,-1.68153 -1.229039,-0.86394 -0.562709,0.39483 -0.592462,0.54544 -0.197878,1.00166 0.615441,0.71157 0.972457,0.67712 1.426917,-0.13772 z m -3.370429,0.1211 c 0.369876,-0.35492 -0.484827,-1.11585 -1.253365,-1.11585 -0.685192,0 -0.687607,0.0208 -0.07744,0.66777 0.666539,0.70673 0.958727,0.80511 1.330809,0.44808 z m -51.262322,-1.24707 c 0,-1.39121 -0.785717,-1.77731 -2.027715,-0.99643 l -0.885793,0.55693 1.021811,0.78453 c 1.41881,1.08934 1.891697,1.00309 1.891697,-0.34503 z m 11.410648,0.31147 c 0.31768,-0.30484 -0.714637,-1.51579 -1.292183,-1.51579 -0.567161,0 -1.76755,1.26813 -1.76755,1.86729 0,0.21567 2.804412,-0.1065 3.059733,-0.3515 z m 3.203453,-0.0133 c 0.552305,-0.63858 3.011305,-0.63858 4.175458,0 1.988979,1.09103 4.848868,0.18783 4.86604,-1.53678 0.0046,-0.46064 -0.539563,-0.53244 -3.909164,-0.51581 -3.004197,0.0148 -4.675403,-0.16352 -7.186589,-0.76699 -3.095883,-0.74397 -3.296035,-0.7549 -3.716615,-0.20298 -0.244485,0.32083 -0.360231,0.7941 -0.257213,1.05171 0.11814,0.29541 -0.04487,0.46837 -0.441444,0.46837 -0.469256,0 -0.528506,0.0962 -0.233573,0.3792 0.294933,0.283 0.539554,0.24066 0.964332,-0.16695 0.798187,-0.76591 1.751156,-0.67958 2.494932,0.22601 1.210769,1.47419 2.518253,1.90314 3.243836,1.06422 z m 19.964046,-0.24122 c 0.621242,-0.95105 -0.275413,-1.54118 -1.166265,-0.76757 -0.387273,0.3363 -0.704131,0.824 -0.704131,1.08376 0,0.64929 1.393625,0.41369 1.870396,-0.31619 z m 12.615063,-0.34308 c -0.115396,-0.41318 -0.21195,-1.01417 -0.214563,-1.33554 -0.0071,-0.87117 -0.657896,-0.70578 -1.129294,0.28699 -0.355144,0.74794 -0.320042,0.93702 0.247942,1.33554 0.956552,0.67117 1.335774,0.57186 1.095915,-0.28699 z m 12.655015,0.10318 c 0,-0.57844 -0.612436,-0.68546 -1.047045,-0.18297 -0.357826,0.41372 -0.306047,0.49715 0.308531,0.49715 0.406182,0 0.738514,-0.14138 0.738514,-0.31418 z m -22.09513,-40.08589 c -0.118277,-0.18364 -0.371626,-0.33389 -0.563001,-0.33389 -0.191375,0 -0.251185,0.15025 -0.132908,0.33389 0.118276,0.18363 0.371626,0.33388 0.563001,0.33388 0.191375,0 0.251185,-0.15025 0.132908,-0.33388 z m 2.957616,-0.13048 c 0,-0.0718 -0.303733,-0.78146 -0.674959,-1.5771 -0.658665,-1.41168 -0.682747,-1.42667 -0.997402,-0.62076 -0.908611,2.32718 -0.908399,2.32834 0.43107,2.32834 0.682712,0 1.241291,-0.0587 1.241291,-0.13048 z m 5.134466,-0.69701 c 0.04902,-0.0368 -0.185853,-0.2971 -0.521932,-0.57837 -0.553488,-0.46323 -0.757693,-0.43572 -2.167619,0.29197 l -1.556566,0.80337 2.078498,-0.225 c 1.143174,-0.12375 2.118603,-0.25514 2.167619,-0.29197 z m -17.312884,-1.34276 c 1.818064,0 3.407459,-0.13498 3.531992,-0.29996 0.124533,-0.16497 -0.06854,-0.60375 -0.429039,-0.97506 -0.614686,-0.63311 -0.695412,-0.64041 -1.297683,-0.1174 -0.81324,0.70621 -1.679818,0.71352 -2.08569,0.0176 -0.287139,-0.49234 -0.400475,-0.48638 -1.281396,0.0675 -0.960216,0.60371 -0.971149,0.60188 -1.70977,-0.28698 -0.696348,-0.83799 -0.825491,-0.8704 -2.041464,-0.5123 -1.294751,0.3813 -1.561862,0.89159 -1.087551,2.07764 0.168581,0.42155 0.497966,0.4769 1.652786,0.27772 0.793232,-0.13681 2.929751,-0.24874 4.747815,-0.24874 z m 4.608338,-9.37463 c 0.25639,-0.24602 -1.361892,-3.79261 -2.083004,-4.56507 -0.719675,-0.77091 -1.532111,-0.73787 -2.65263,0.10789 -0.728732,0.55004 -0.872051,0.87573 -0.69791,1.58595 0.343417,1.40061 0.765048,1.62559 1.404554,0.74949 l 0.572897,-0.78485 0.650032,1.2158 c 0.4159,0.77789 0.897696,1.21581 1.337629,1.21581 0.378178,0 0.687597,0.15025 0.687597,0.33389 0,0.36469 0.461002,0.448 0.780835,0.14109 z m -38.098987,48.71886 c 0.239219,-0.0926 0.630668,-0.0926 0.869887,0 0.239219,0.0926 0.04349,0.16841 -0.434943,0.16841 -0.478438,0 -0.674163,-0.0758 -0.434944,-0.16841 z m 39.251959,-3.75436 c -0.107246,-0.16651 0.119217,-0.2239 0.503251,-0.12753 0.384031,0.0964 0.971424,-0.0303 1.30531,-0.28155 0.54979,-0.41367 0.56201,-0.40164 0.12952,0.12753 -0.508964,0.62274 -1.614858,0.78339 -1.938081,0.28155 z m -48.093338,-2.5537 c -0.114211,-0.2856 -0.0416,-0.84903 0.161349,-1.25207 0.358584,-0.71212 0.369669,-0.70735 0.392554,0.16878 0.01295,0.49588 0.297564,1.05474 0.632471,1.24192 0.542056,0.30295 0.521753,0.34144 -0.184898,0.35047 -0.4366,0.006 -0.887265,-0.22351 -1.001476,-0.5091 z m 52.921855,-1.90464 c 0.580528,-0.85017 0.35364,-1.41896 -0.673115,-1.68745 -0.431482,-0.11282 -0.299269,-0.15922 0.347955,-0.12209 0.802011,0.046 1.070208,0.23819 1.157562,0.82949 0.114786,0.77698 -0.456148,1.73452 -1.034212,1.73452 -0.172353,0 -0.08154,-0.33951 0.20181,-0.75447 z m 15.995489,-1.30042 c -0.148243,-0.23017 -0.09601,-0.29518 0.129634,-0.16136 0.207851,0.12326 0.623493,-0.11233 0.923649,-0.52353 0.379487,-0.51989 0.54574,-0.59279 0.54574,-0.23931 0,0.53142 -0.649451,1.30967 -1.09292,1.30967 -0.141805,0 -0.369552,-0.17346 -0.506103,-0.38547 z m -67.064057,-0.50489 c -0.31426,-0.30155 -0.294404,-1.37062 0.02899,-1.56125 0.143531,-0.0846 0.277639,0.28215 0.298017,0.815 0.03996,1.04486 0.02345,1.08254 -0.327013,0.74625 z m 14.832907,-0.0991 c -0.996013,-0.14821 -2.768407,-0.77502 -3.938655,-1.39292 -2.197297,-1.16018 -8.725912,-5.70414 -8.504521,-5.9192 0.06872,-0.0668 1.816495,1.03782 3.883952,2.45461 6.013413,4.12086 6.516559,4.31473 11.240042,4.33082 2.200814,0.008 4.706088,-0.088 5.567276,-0.21222 l 1.565797,-0.22585 -1.44001,0.44429 c -1.919724,0.5923 -6.131848,0.85411 -8.373881,0.52047 z m 36.778164,-3.17852 c 0.483765,-1.22095 0.140463,-2.16642 -0.804123,-2.2146 -0.6135,-0.0313 -0.639214,-0.0687 -0.133813,-0.19451 1.415476,-0.35245 2.293126,1.96541 1.103055,2.91315 -0.468883,0.3734 -0.488752,0.31276 -0.165119,-0.50404 z m 7.657229,-3.5114 c -0.313608,-0.19448 -0.356525,-0.32571 -0.107525,-0.32878 0.227924,-0.003 0.51118,0.14514 0.629457,0.32878 0.266986,0.41452 0.146531,0.41452 -0.521932,0 z m -47.669807,-1.02699 c -5.897035,-2.18294 -6.367709,-2.30233 -6.806532,-1.72647 -0.370874,0.48669 -0.435212,0.47192 -0.639889,-0.14688 -0.232772,-0.70374 -1.614344,-1.09483 -3.89517,-1.10261 -0.641947,-0.002 -1.339128,-0.28169 -1.726092,-0.69199 -0.3679,-0.39009 -0.919132,-0.62057 -1.27225,-0.53197 -0.342696,0.086 -0.535337,0.0201 -0.428091,-0.14639 0.339369,-0.52691 1.413873,-0.32821 2.087478,0.38602 0.49694,0.52691 1.020672,0.67402 2.228647,0.62601 0.868478,-0.0345 1.813921,0.0237 2.100984,0.12946 0.287063,0.10572 1.206041,0.36049 2.042174,0.56616 0.836132,0.20567 2.793378,0.86592 4.349434,1.46721 4.265925,1.64845 4.704915,1.67106 10.395396,0.53553 2.778722,-0.5545 5.605636,-1.00817 6.28203,-1.00817 0.676396,0 1.308787,-0.18781 1.405313,-0.41736 0.140403,-0.33388 0.180996,-0.33388 0.202972,0 0.02881,0.43743 1.423219,0.60207 1.413963,0.16694 -0.01319,-0.62043 -0.646733,-1.15214 -1.086624,-0.91197 -0.394045,0.21513 -0.396223,0.18016 -0.01294,-0.20764 0.391313,-0.39592 0.578986,-0.32552 1.242839,0.4662 0.707211,0.84343 0.879278,0.89722 1.800791,0.56297 0.560378,-0.20326 1.746841,-0.95714 2.636589,-1.67528 1.886792,-1.5229 4.63361,-2.99214 5.593941,-2.99214 0.72647,0 2.705049,1.70947 2.705049,2.33713 0,0.21185 -0.405367,-0.0771 -0.900817,-0.64208 -1.020565,-1.16383 -2.164188,-1.31764 -3.781207,-0.50854 -1.842434,0.9219 -5.345208,3.63904 -5.535599,4.29403 -0.154199,0.5305 -0.275778,0.56755 -0.714904,0.21784 -0.751694,-0.59862 -6.16823,-0.28438 -10.292715,0.59714 -5.205284,1.11251 -7.15353,1.18651 -9.39478,0.35685 z m -10.786599,0.045 c 0,-0.19448 0.15658,-0.35359 0.347955,-0.35359 0.191375,0 0.347955,0.0662 0.347955,0.14723 0,0.081 -0.15658,0.2401 -0.347955,0.35359 -0.191375,0.1135 -0.347955,0.0472 -0.347955,-0.14723 z m -2.266859,-1.0578 c -1.849505,-0.93926 -2.604508,-1.61378 -2.604508,-2.32689 0,-0.32472 -0.428948,-1.09024 -0.953218,-1.70114 -0.52427,-0.61091 -0.668916,-0.89504 -0.321435,-0.63139 0.549009,0.41655 0.673198,0.41655 0.94789,0 0.173859,-0.26365 0.318505,-0.61199 0.321435,-0.77408 0.0029,-0.1621 0.283955,-0.53772 0.624499,-0.83471 0.340543,-0.297 0.91026,-1.17409 1.266037,-1.94911 0.355776,-0.77501 0.956307,-1.6765 1.334513,-2.00331 0.378206,-0.3268 0.822381,-0.93225 0.987057,-1.34543 0.164676,-0.41319 0.447758,-0.75124 0.629072,-0.75124 0.501257,0 3.515065,3.50598 3.515065,4.08909 0,0.71071 -1.064142,1.81995 -1.994947,2.0795 -0.975936,0.27213 -2.534748,-1.11029 -2.514845,-2.23027 0.01191,-0.67031 0.07305,-0.63537 0.487571,0.27862 0.587197,1.29475 1.042859,1.57863 2.118203,1.31965 0.962886,-0.2319 1.706338,-1.34038 1.404762,-2.0945 -0.170066,-0.42526 -0.297401,-0.43866 -0.749222,-0.0788 -0.62237,0.49564 -1.021868,0.11245 -1.417833,-1.35994 -0.4463,-1.65955 -1.465086,-1.43697 -1.528274,0.33389 -0.02648,0.74212 -0.0594,0.76202 -0.296795,0.17944 -0.254494,-0.62457 -0.292941,-0.61674 -0.820215,0.16694 -0.304262,0.45222 -0.754181,1.27296 -0.999818,1.82387 -0.245638,0.55091 -0.799625,1.42022 -1.231082,1.9318 -0.637097,0.75541 -0.746893,1.19448 -0.584454,2.33719 0.246854,1.73655 0.447316,1.9778 2.682697,3.22846 2.036789,1.13955 1.802858,1.38142 -0.302155,0.31241 z m 55.394042,0.45379 c -0.08304,-0.13772 -0.02498,-0.55091 0.128986,-0.91818 0.244404,-0.58296 0.283065,-0.55116 0.304412,0.25041 0.02411,0.90583 -0.13866,1.15665 -0.433398,0.66777 z m -1.257603,-1.89172 c -0.232545,-0.26887 -0.76374,-0.55254 -1.180437,-0.63037 -0.648354,-0.12111 -0.625762,-0.14808 0.156643,-0.18699 0.854399,-0.0425 2.007414,0.76808 1.620578,1.13927 -0.09569,0.0918 -0.364239,-0.053 -0.596784,-0.32191 z m -42.942803,-1.47342 c -1.223926,-1.29773 -0.09923,-1.5143 1.163913,-0.22412 0.784285,0.80108 0.788902,0.83471 0.114582,0.83471 -0.386449,0 -0.961772,-0.27476 -1.278495,-0.61059 z m 5.986839,-0.0683 c 0.829703,-0.66326 2.136169,-0.89345 2.136169,-0.37637 0,0.35765 -1.587962,1.05871 -2.365067,1.04414 -0.483764,-0.009 -0.441741,-0.13166 0.228898,-0.66777 z m -23.455228,-3.35876 c -0.30609,-0.56798 -0.48777,-1.09867 -0.40373,-1.17931 0.084,-0.0806 0.35399,0.31945 0.59989,0.8891 l 0.44708,1.03572 2.035439,-1.93274 c 1.119487,-1.06302 2.035431,-1.83335 2.035431,-1.71187 0,0.49166 -1.478463,2.58427 -1.72326,2.43909 -0.144821,-0.0859 -0.626525,0.21483 -1.070457,0.66827 -1.039573,1.06183 -1.248113,1.03921 -1.920393,-0.20826 z m 2.278426,0.7185 c 0,-0.1728 0.154786,-0.40598 0.343969,-0.51817 0.197242,-0.11697 0.255576,0.0171 0.136751,0.31418 -0.231318,0.57843 -0.48072,0.68426 -0.48072,0.20399 z m 35.839344,-0.26212 c -0.287063,-0.10434 -1.019542,-0.60426 -1.627732,-1.11093 l -1.105797,-0.92123 1.803641,-1.14913 c 0.992001,-0.63202 2.303882,-1.39735 2.915283,-1.70073 1.204759,-0.59782 2.059159,-0.74975 1.051892,-0.18705 -0.338932,0.18934 -0.510464,0.50848 -0.381181,0.7092 0.135661,0.21063 0.0752,0.27016 -0.142978,0.14076 -0.229963,-0.13638 -0.421384,0.13656 -0.488706,0.6968 -0.13429,1.11755 -1.171919,1.41715 -1.865654,0.53868 -0.284808,-0.36065 -0.489151,-0.44157 -0.495658,-0.19628 -0.0061,0.22955 -0.236693,0.41736 -0.512461,0.41736 -1.497691,0 -0.327161,2.06526 1.407283,2.48297 2.503663,0.60297 5.47868,-3.32045 3.764822,-4.96501 -0.594714,-0.57067 -0.592623,-0.58995 0.05129,-0.47258 0.912505,0.16632 1.124733,2.66258 0.325839,3.83254 -1.0774,1.57783 -3.20102,2.42939 -4.699881,1.88463 z m -0.04438,-2.01131 c -0.429867,-0.52596 -0.418419,-0.53988 0.114675,-0.13936 0.767171,0.57638 1.974508,0.20655 2.36587,-0.72471 0.228488,-0.54371 0.30881,-0.58234 0.325422,-0.15652 0.02262,0.57989 -1.207793,1.60489 -1.926511,1.60489 -0.221049,0 -0.616802,-0.26294 -0.879456,-0.5843 z m -38.04925,-0.71665 c 0.37868,-0.44007 1.314818,-1.24212 2.080314,-1.78234 l 1.391819,-0.98222 -1.652785,0.2343 -1.652788,0.2343 0,-1.03957 c 0,-1.32624 0.945088,-2.23065 2.850687,-2.72798 2.602805,-0.6793 2.617742,-0.68787 1.754874,-1.00707 -0.739347,-0.2735 -0.759265,-0.35862 -0.324219,-1.38556 0.325382,-0.76809 0.715692,-1.11644 1.309672,-1.16888 0.465384,-0.0411 0.611283,0.0138 0.32422,0.12188 -0.659038,0.24823 -1.391819,1.1223 -1.391819,1.66018 0,0.22611 0.566762,0.5906 1.259473,0.80997 1.372603,0.43468 1.065156,0.97216 -0.563564,0.98522 -1.182086,0.009 -3.211959,0.57268 -3.911516,1.08528 -0.3156,0.23125 -0.681938,0.85006 -0.814088,1.37513 -0.22879,0.90897 -0.19222,0.94579 0.763848,0.76911 0.552277,-0.10206 1.708749,-0.27687 2.569937,-0.38848 l 1.565797,-0.20292 -1.913752,1.0358 c -1.052563,0.5697 -2.458442,1.5169 -3.12417,2.10489 -0.68399,0.60412 -0.91099,0.72109 -0.52194,0.26896 z m 34.658041,-1.03625 c -0.0069,-0.27545 0.202523,-0.95157 0.465414,-1.50248 0.262886,-0.55091 0.483629,-0.77628 0.490543,-0.50083 0.0069,0.27546 -0.202524,0.95158 -0.465414,1.50249 -0.262887,0.55091 -0.483629,0.77628 -0.490543,0.50082 z m -22.096097,-1.51539 c -0.11933,-0.29839 -0.202842,-0.8683 -0.185582,-1.26646 0.02224,-0.51296 0.12942,-0.39703 0.367791,0.3978 0.346574,1.15564 0.204128,1.83473 -0.182209,0.86866 z m 11.513489,-0.69518 c -0.13637,-0.13085 -0.255235,-0.92655 -0.264146,-1.76822 l -0.0162,-1.53031 -0.860355,1.58596 c -0.473195,0.87227 -1.00192,1.58595 -1.174943,1.58595 -0.173024,0 -0.835487,-0.40564 -1.472139,-0.90142 -0.636653,-0.49578 -1.198367,-0.92309 -1.248254,-0.94957 -0.04989,-0.0265 0.14433,-0.71015 0.431595,-1.51925 l 0.522299,-1.47109 -0.706426,0.80466 c -0.388534,0.44256 -0.834156,1.02367 -0.990272,1.29135 -0.244294,0.41888 -0.412058,0.40609 -1.203977,-0.0918 -0.506072,-0.31819 -0.920131,-0.72136 -0.920131,-0.89595 0,-0.49724 0.71399,-1.70345 1.495954,-2.52726 0.533098,-0.56163 0.587992,-0.75749 0.217485,-0.77601 -0.464788,-0.0232 1.954977,-1.23237 2.573592,-1.28601 0.157054,-0.0136 -0.66499,0.84317 -1.826762,1.90397 -1.161773,1.0608 -2.112314,2.08925 -2.112314,2.28545 0,0.19619 0.290101,0.60863 0.64467,0.91654 0.612049,0.5315 0.691031,0.4926 1.560896,-0.7687 0.771098,-1.11809 2.317846,-2.38786 2.317846,-1.90279 0,0.08 -0.383106,0.939 -0.851348,1.90878 -0.786705,1.62937 -0.863146,2.31089 -0.25897,2.30889 0.132237,-4.3e-4 0.692592,-0.83115 1.245234,-1.84602 0.552641,-1.01488 1.071795,-1.78095 1.153676,-1.70238 0.08188,0.0786 -0.358194,1.005 -0.977943,2.05873 -1.081031,1.83802 -1.100464,1.93436 -0.478251,2.37094 0.356711,0.25029 0.738253,0.45507 0.847871,0.45507 0.109618,0 0.570005,-0.74923 1.023084,-1.66496 0.453078,-0.91573 1.046497,-1.84232 1.318709,-2.0591 0.42078,-0.3351 0.479093,-0.0731 0.38922,1.74842 -0.09793,1.98477 -0.04979,2.15022 0.653567,2.2463 0.625317,0.0854 0.786806,-0.0913 0.915302,-1.00165 l 0.156024,-1.10538 -0.04541,1.1686 c -0.03842,0.98862 -0.181389,1.18381 -0.928324,1.26739 -0.4856,0.0543 -0.994484,-0.008 -1.130853,-0.13912 z m 3.096262,-0.52265 c -0.07181,-0.24128 -0.32682,-1.06607 -0.566696,-1.83287 -0.251331,-0.80342 -0.316563,-1.65229 -0.153946,-2.00331 0.201564,-0.43509 0.375787,0.0348 0.609777,1.6446 0.321464,2.21161 0.347089,2.25373 1.371296,2.25373 l 1.04371,0 -0.144015,-2.17026 c -0.07921,-1.19364 -0.03591,-2.17025 0.09622,-2.17025 0.443176,0 0.549053,0.82173 0.344161,2.67108 -0.197404,1.78176 -0.237154,1.83948 -1.3367,1.94116 -0.715082,0.0661 -1.18142,-0.0571 -1.263802,-0.33388 z m -18.457418,-0.70924 c 0.118494,-0.2963 0.514139,-0.6297 0.879209,-0.74089 0.79017,-0.24065 0.82995,-0.59539 0.178064,-1.58791 -0.267136,-0.40672 -0.584868,-1.11511 -0.706071,-1.5742 -0.121204,-0.4591 0.184055,-0.11084 0.678351,0.7739 l 0.898722,1.60862 1.460135,-1.23827 c 0.803074,-0.68105 1.603893,-1.36258 1.779598,-1.5145 0.180038,-0.15568 -0.503332,-0.64375 -1.565797,-1.11833 -2.031502,-0.90742 -1.814064,-1.1778 0.273947,-0.34065 2.297258,0.92104 2.333647,1.0952 0.526392,2.51924 -0.902953,0.71149 -2.311392,1.8467 -3.129864,2.52268 -0.818472,0.67597 -1.39118,0.98662 -1.272686,0.69031 z m 22.215471,-0.74018 c -0.514865,-0.64773 -0.858906,-1.25178 -0.764537,-1.34233 0.09437,-0.0906 0.588165,0.4394 1.097323,1.17768 1.142414,1.6565 0.934731,1.75925 -0.332786,0.16465 z m 2.118543,0.33853 c 0.38275,-0.29816 0.923061,-0.66736 1.200691,-0.82044 0.409,-0.22552 0.272288,-0.55378 -0.720511,-1.73003 -2.344812,-2.7781 -2.191721,-3.10711 0.318881,-0.68532 l 1.659817,1.60111 -0.707507,0.69617 c -0.389128,0.38289 -1.098956,0.87267 -1.577394,1.08839 -0.83797,0.37783 -0.844354,0.37233 -0.173977,-0.14988 z m 6.001152,-0.0362 c -0.729477,-0.36752 -1.144403,-0.39593 -1.739774,-0.11912 -0.750977,0.34915 -0.755177,0.34301 -0.106405,-0.15575 0.83919,-0.64514 1.60173,-0.65922 2.476105,-0.0457 0.956657,0.67124 0.51361,0.89672 -0.629926,0.32059 z m 5.355347,-1.64133 c -0.595928,-0.48117 -1.434398,-1.35131 -1.863266,-1.93365 -0.677687,-0.92021 -0.525297,-0.85121 1.164204,0.52714 1.069182,0.87228 2.117994,1.58596 2.330699,1.58596 0.353171,0 2.843807,-3.40973 2.843807,-3.89323 0,-0.11413 -1.370072,-0.13355 -3.044605,-0.0431 -1.674532,0.0904 -2.653155,0.0514 -2.174717,-0.0866 1.53471,-0.4428 5.917935,-0.36857 5.893122,0.0998 -0.02707,0.51115 -3.153016,4.3266 -3.683815,4.49638 -0.210056,0.0672 -0.869504,-0.27152 -1.465429,-0.75268 z m -36.725008,-1.60008 c -0.304768,-1.00597 -0.53999,-2.10641 -0.522715,-2.44542 0.01728,-0.33901 0.321912,0.43101 0.676972,1.71116 0.767217,2.76615 0.641956,3.36239 -0.154257,0.73426 z m 29.138018,0.9595 c 0,-0.26738 0.133037,-0.40724 0.295639,-0.31081 0.1626,0.0964 0.205555,0.31519 0.09545,0.48614 -0.281363,0.43685 -0.391087,0.38766 -0.391087,-0.17533 z m -1.520511,-2.20033 c -0.613277,-0.74302 -1.053401,-1.4101 -0.978052,-1.4824 0.07535,-0.0723 0.822395,0.31025 1.660103,0.85011 1.969483,1.26924 2.36755,1.25081 2.237628,-0.10356 l -0.104098,-1.08513 0.311701,1.16634 c 0.171434,0.64148 0.239421,1.23569 0.151079,1.32046 -0.08834,0.0848 -0.653202,-0.0243 -1.255247,-0.24235 -1.261113,-0.45677 -1.603334,-0.30963 -0.973522,0.41857 0.242079,0.27989 0.35584,0.50889 0.2528,0.50889 -0.103037,0 -0.689114,-0.60792 -1.302392,-1.35093 z m -26.752342,-0.45761 c -0.01511,-0.35197 0.06713,-0.54917 0.182753,-0.43823 0.115623,0.11095 0.127984,0.39893 0.02747,0.63995 -0.111076,0.26635 -0.193526,0.18724 -0.210223,-0.20172 z m 6.879487,-0.86254 c -0.318752,-0.8774 -0.543116,-1.01005 -1.808662,-1.06933 -3.131258,-0.14667 -3.874392,-0.13589 -5.339599,0.0775 -1.038488,0.15123 -1.480693,0.10538 -1.394303,-0.14458 0.07946,-0.2299 1.604265,-0.39878 4.099643,-0.45406 4.744606,-0.1051 5.41192,-0.26387 4.038585,-0.96088 -1.203235,-0.61068 -1.072068,-1.11616 0.481754,-1.85657 0.655909,-0.31254 0.996839,-0.57547 0.75762,-0.58429 -0.239219,-0.009 -0.434944,-0.3242 -0.434944,-0.70085 0,-1.00903 1.959719,-1.65828 5.098902,-1.68925 l 2.659046,-0.0262 -0.979707,-0.7496 -0.979707,-0.74961 0.66727,-0.87778 c 0.366998,-0.48278 0.980429,-0.87298 1.363179,-0.86711 0.630439,0.01 0.621529,0.0393 -0.0947,0.31537 -1.316916,0.50754 -1.363812,1.31735 -0.132527,2.2885 0.606864,0.47864 1.102342,0.94539 1.101064,1.03721 -0.0013,0.0918 -1.312542,0.11891 -2.91392,0.0602 -2.034555,-0.0746 -3.292544,0.046 -4.176269,0.40032 -1.777486,0.71265 -1.582461,1.20889 0.475099,1.20889 2.191181,0 2.265499,0.5163 0.118783,0.82521 -2.04133,0.29373 -3.250376,0.72888 -3.250376,1.16984 0,0.49605 1.112911,0.4199 2.604776,-0.17824 1.557863,-0.62459 2.044506,-0.40083 0.646141,0.2971 -0.544066,0.27155 -1.358473,0.87306 -1.809792,1.3367 -0.77784,0.79907 -0.792822,0.89637 -0.287635,1.86809 0.29312,0.56381 0.380222,1.02512 0.19356,1.02512 -0.186663,0 -0.503139,-0.45075 -0.70328,-1.00166 z m 22.321246,-0.96111 c 0,-0.14981 -0.352304,-0.43542 -0.782898,-0.63469 -0.47063,-0.2178 -0.574717,-0.36661 -0.260966,-0.37308 0.287063,-0.006 0.892608,0.18644 1.345659,0.42748 0.688105,0.36608 0.731071,0.47235 0.260966,0.64545 -0.309519,0.11398 -0.562761,0.0846 -0.562761,-0.0652 z m -12.677316,-1.0422 c 0.327184,-0.64273 1.662333,-2.16493 2.966997,-3.38266 l 2.372117,-2.21407 -1.548714,-0.56755 c -0.851793,-0.31215 -1.676169,-0.78608 -1.831947,-1.05318 -0.155778,-0.26711 -0.74363,-0.61764 -1.306337,-0.77896 -0.844738,-0.24217 -0.888173,-0.29831 -0.249142,-0.322 0.499015,-0.0185 0.975044,-0.40182 1.339995,-1.07902 0.540061,-1.00214 0.53648,-1.03847 -0.07805,-0.79178 -1.209176,0.48539 -2.209882,0.58595 -2.209882,0.22208 0,-0.19928 0.224401,-0.2797 0.498669,-0.17871 0.274269,0.10099 1.188359,-0.20422 2.031311,-0.67825 1.998332,-1.12375 2.252925,-1.08724 1.154375,0.16552 -1.338688,1.52661 -1.525401,2.62451 -0.572279,3.36509 1.46392,1.13748 3.382792,1.40087 5.91341,0.8117 3.338044,-0.77716 5.020635,-0.6376 1.93509,0.16049 -1.339626,0.34651 -2.844851,0.63344 -3.344944,0.63763 -0.63533,0.005 -1.395331,0.50627 -2.522673,1.66275 -0.887376,0.91032 -1.613411,1.80709 -1.613411,1.99283 0,0.18574 -0.234869,0.25123 -0.521932,0.14552 -0.287063,-0.1057 -0.527811,-0.0634 -0.534997,0.094 -0.0072,0.15737 -0.566445,0.88712 -1.242799,1.62167 l -1.229734,1.33554 0.59488,-1.1686 z m 45.733022,0.18665 c 0,-0.26462 0.141976,-0.56532 0.315504,-0.66823 0.173529,-0.10291 0.233555,0.1136 0.133396,0.48112 -0.212465,0.77962 -0.4489,0.87817 -0.4489,0.18711 z m -16.054363,-1.88283 -0.821445,-0.69452 0.860322,0.52758 c 1.257192,0.77096 1.724593,0.65638 2.274448,-0.55754 0.270333,-0.59682 0.497645,-0.90439 0.505137,-0.68348 0.02815,0.83018 -0.816327,2.10249 -1.395504,2.10249 -0.330832,0 -0.97116,-0.31254 -1.422958,-0.69453 z m -0.299513,-1.18932 c 0,-0.17914 0.243506,-0.61737 0.541129,-0.97383 0.510231,-0.61111 0.517475,-0.60046 0.126844,0.1866 -0.507252,1.02203 -0.667973,1.21145 -0.667973,0.78723 z m 12.265407,-3.65315 c -0.621969,-0.47037 -1.130853,-1.10313 -1.130853,-1.40613 0,-0.42136 0.132299,-0.36968 0.562542,0.21974 0.309401,0.42387 1.053155,1.05773 1.652785,1.40859 0.599634,0.35085 0.855374,0.63681 0.568311,0.63546 -0.287062,-10e-4 -1.030816,-0.3873 -1.652785,-0.85766 z m -9.817854,-0.86835 c -1.146167,-1.80851 -1.314065,-3.6112 -0.33634,-3.6112 0.185703,0 0.158657,0.26384 -0.06177,0.60252 -0.311371,0.47842 -0.222395,0.9227 0.431997,2.15715 l 0.824127,1.55463 1.114698,-0.67764 1.114701,-0.67764 -0.741249,-1.46402 c -0.407688,-0.80521 -0.987593,-1.52332 -1.288678,-1.5958 -0.363213,-0.0874 -0.329812,-0.12073 0.09926,-0.099 0.390854,0.0198 0.971973,0.61817 1.46896,1.51247 0.912178,1.64142 0.784579,2.02604 -0.959207,2.89132 -0.951165,0.47198 -1.003449,0.45338 -1.666501,-0.59283 z m 9.034956,-1.68071 c 0,-0.3595 0.761088,-0.31868 1.391819,0.0746 0.39964,0.24921 0.297727,0.30919 -0.434944,0.25595 -0.526281,-0.0382 -0.956875,-0.187 -0.956875,-0.33058 z m -27.823652,-0.8222 c -0.971873,-1.18557 -0.889056,-1.9412 0.301948,-2.75498 1.435418,-0.98077 1.627757,-0.85485 0.35761,0.23414 -0.993894,0.85214 -1.044515,0.99613 -0.645546,1.83637 0.614001,1.29309 1.839004,1.11551 3.733089,-0.54116 0.535265,-0.46817 0.734264,-0.53174 0.598009,-0.19102 -0.19522,0.48817 -1.767757,1.54733 -3.037656,2.04598 -0.415991,0.16335 -0.815171,-0.0288 -1.307454,-0.62933 z m 23.620591,-2.02647 c -0.391989,-0.49708 -0.387959,-0.522 0.027,-0.16694 0.616051,0.52713 1.519874,0.55145 1.185232,0.0319 -0.153824,-0.23883 -0.09545,-0.29484 0.153441,-0.14724 0.620201,0.36781 0.475396,0.8666 -0.251603,0.8666 -0.359315,0 -0.860649,-0.26294 -1.114071,-0.5843 z m -5.976266,-0.79594 c 0.140841,-0.51681 0.06023,-0.66581 -0.293542,-0.54257 -0.268238,0.0934 -0.444683,0.35011 -0.392096,0.57035 0.05258,0.22024 -0.07245,0.30077 -0.277863,0.17895 -0.261941,-0.15534 -0.251791,-0.36217 0.03399,-0.69259 0.648998,-0.75038 1.366098,-0.55952 1.366098,0.36361 0,0.4591 -0.14192,0.83472 -0.315379,0.83472 -0.173459,0 -0.228004,-0.32062 -0.121213,-0.71247 z m -13.672975,-0.26092 c -0.181806,-0.16808 -0.722006,-0.37299 -1.200444,-0.45535 l -0.869887,-0.14975 0.914273,-0.0455 c 0.502846,-0.025 1.109192,0.1799 1.347434,0.45536 0.473458,0.54741 0.338487,0.68509 -0.191376,0.19521 z m -9.870317,-0.15092 c 0.07974,-0.0675 0.7713,-0.21416 1.5368,-0.32601 0.970028,-0.14173 1.180924,-0.11167 0.69591,0.0992 -0.667973,0.29039 -2.531666,0.47973 -2.23271,0.22682 z m 4.318779,-1.31158 c 0.964151,-0.52397 1.46284,-1.05945 1.627336,-1.7474 l 0.237176,-0.99193 -0.06154,0.99087 c -0.04465,0.71896 -0.385983,1.19998 -1.243848,1.7529 -0.650272,0.41911 -1.35488,0.75955 -1.565797,0.75653 -0.21092,-0.003 0.242083,-0.34546 1.006672,-0.76097 z m 24.793439,-0.45948 c -0.334907,-0.0872 -0.608921,-0.38365 -0.608921,-0.65876 0,-0.43395 0.07242,-0.4307 0.546786,0.0245 0.727654,0.69824 1.794233,0.66671 2.017383,-0.0596 0.139794,-0.45502 0.163901,-0.43655 0.108948,0.0835 -0.07151,0.6767 -0.885381,0.91738 -2.064196,0.61043 z m -32.127396,-3.14485 c -0.683228,-0.72443 -0.411097,-1.62687 0.575357,-1.90799 0.298567,-0.0851 0.246338,0.0438 -0.130786,0.32282 -0.394944,0.29217 -0.542483,0.67797 -0.397716,1.03997 0.307123,0.76798 0.949351,0.72642 1.740709,-0.11267 0.55544,-0.58893 0.575757,-0.73261 0.140917,-0.99654 -0.312835,-0.18987 -0.348839,-0.31035 -0.09369,-0.3135 1.115115,-0.0138 0.714689,1.6629 -0.552564,2.31369 -0.494781,0.25409 -0.792095,0.17391 -1.282229,-0.34578 z m 25.130568,-1.65322 -0.211707,-1.01574 -1.067483,0.75731 c -0.909968,0.64556 -1.115404,0.68459 -1.392254,0.2645 -0.178626,-0.27105 -0.327172,-0.83087 -0.330102,-1.24405 -0.007,-0.98559 -0.657578,-0.95121 -1.835646,0.097 -0.524326,0.46652 -0.953319,0.70973 -0.953319,0.54045 0,-0.29735 2.200504,-2.05645 2.572478,-2.05645 0.100775,0 0.369149,0.59547 0.596391,1.32327 l 0.413165,1.32326 0.990248,-0.67661 c 1.117666,-0.76366 1.687258,-0.60591 1.698643,0.47046 0.0076,0.71929 0.01886,0.71765 0.672109,-0.0982 0.365408,-0.45635 0.764958,-0.73321 0.887894,-0.61525 0.234494,0.22501 -1.168982,1.9458 -1.586998,1.9458 -0.132939,0 -0.33698,-0.45708 -0.453419,-1.01574 z m -19.480963,0.43144 c -0.08871,-0.13773 0.37179,-0.25041 1.023328,-0.25041 0.651538,0 1.184616,0.11268 1.184616,0.25041 0,0.13773 -0.460498,0.25041 -1.023328,0.25041 -0.562831,0 -1.095908,-0.11268 -1.184616,-0.25041 z m 11.336186,-0.5843 c -0.332905,-0.53356 -0.479109,-0.57673 -0.727465,-0.21477 -0.231369,0.3372 -0.375524,0.35256 -0.563906,0.0601 -0.139193,-0.21611 -0.589359,-0.52734 -1.00037,-0.69162 -0.607672,-0.24289 -0.517371,-0.28161 0.483319,-0.20727 0.676835,0.0503 1.406458,0.19571 1.621383,0.32317 0.214928,0.12746 0.61469,0.1493 0.88836,0.0485 0.273673,-0.10077 0.710847,0.0865 0.971496,0.41627 0.404821,0.5121 0.402803,0.53865 -0.01385,0.18214 -0.665735,-0.56965 -0.970718,-0.52411 -1.117892,0.16694 -0.112643,0.52891 -0.163935,0.521 -0.54108,-0.0835 z m -4.00171,-0.54226 c 0.236032,-0.22818 0.516797,-0.33077 0.623929,-0.22797 0.107131,0.1028 -0.08598,0.2895 -0.429143,0.41488 -0.495906,0.18119 -0.535872,0.14284 -0.194786,-0.18691 z"
       id="path3067"
       inkscape:connector-curvature="0" />
  </g>
</svg>
